<?xml version="1.0" encoding="UTF-8"?>
<svg xmlns:inkscape="http://www.inkscape.org/namespaces/inkscape" xmlns="http://www.w3.org/2000/svg" width="100%%" height="100%%" viewBox="-933.698 -3049.25 1990.41 5990.37">
<path stroke="black" stroke-width="1" fill="none" d="M -720.90,-1265.83L -795.90,-1116.38"/>
<path stroke="black" stroke-width="1" fill="none" d="M -440.31,-225.29L -440.31,-442.21"/>
<path stroke="black" stroke-width="1" fill="none" d="M 436.24,1226.10L 511.24,1226.10"/>
<path stroke="black" stroke-width="1" fill="none" d="M -710.62,166.93L -623.38,94.74"/>
<path stroke="black" stroke-width="1" fill="none" d="M 159.92,1554.86L 159.92,1366.52"/>
<path stroke="black" stroke-width="1" fill="none" d="M -344.22,-1041.83L -344.22,-1273.12"/>
<path stroke="black" stroke-width="1" fill="none" d="M -440.31,-708.43L -440.31,-1041.83"/>
<path stroke="black" stroke-width="1" fill="none" d="M 575.13,1000.22L 575.13,791.73"/>
<path stroke="black" stroke-width="1" fill="none" d="M -39.05,1359.50L 19.93,1462.58"/>
<path stroke="black" stroke-width="1" fill="none" d="M 159.92,2399.17L 159.92,2141.81"/>
<path stroke="black" stroke-width="1" fill="none" d="M 159.92,1366.52L 245.23,1226.10"/>
<path stroke="black" stroke-width="1" fill="none" d="M 681.58,-2964.95L 601.42,-3012.96"/>
<path stroke="black" stroke-width="1" fill="none" d="M -237.80,688.87L -190.60,875.06"/>
<path stroke="black" stroke-width="1" fill="none" d="M -440.31,-63.09L -382.02,118.97"/>
<path stroke="black" stroke-width="1" fill="none" d="M 332.93,1226.10L 436.24,1226.10"/>
<path stroke="black" stroke-width="1" fill="none" d="M -896.05,820.23L -903.20,1134.02"/>
<path stroke="black" stroke-width="1" fill="none" d="M -151.57,-1807.07L -209.24,-1573.67"/>
<path stroke="black" stroke-width="1" fill="none" d="M -625.66,-1116.38L -535.86,-1041.83"/>
<path stroke="black" stroke-width="1" fill="none" d="M -874.97,-391.32L -872.75,-92.22"/>
<path stroke="black" stroke-width="1" fill="none" d="M -749.39,2293.39L -671.01,2513.84"/>
<path stroke="black" stroke-width="1" fill="none" d="M -872.75,198.73L -792.93,198.73"/>
<path stroke="black" stroke-width="1" fill="none" d="M -535.86,-1041.83L -440.31,-1041.83"/>
<path stroke="black" stroke-width="1" fill="none" d="M 995.31,-804.33L 1017.35,-1083.00"/>
<path stroke="black" stroke-width="1" fill="none" d="M -813.63,2036.24L -749.39,2293.39"/>
<path stroke="black" stroke-width="1" fill="none" d="M -154.71,2868.24L -45.96,2762.52"/>
<path stroke="black" stroke-width="1" fill="none" d="M -440.31,-1041.83L -440.31,-1150.39"/>
<path stroke="black" stroke-width="1" fill="none" d="M -284.48,498.02L -237.80,688.87"/>
<path stroke="black" stroke-width="1" fill="none" d="M -795.90,-1116.38L -795.90,-913.35"/>
<path stroke="black" stroke-width="1" fill="none" d="M -209.24,-1273.12L -209.24,-1209.49"/>
<path stroke="black" stroke-width="1" fill="none" d="M -331.78,306.59L -284.48,498.02"/>
<path stroke="black" stroke-width="1" fill="none" d="M 563.83,1363.13L 575.13,1177.24"/>
<path stroke="black" stroke-width="1" fill="none" d="M 436.24,1545.21L 436.24,1226.10"/>
<path stroke="black" stroke-width="1" fill="none" d="M 140.50,-342.75L 203.99,-69.54"/>
<path stroke="black" stroke-width="1" fill="none" d="M 270.77,-2841.39L 191.37,-2724.93"/>
<path stroke="black" stroke-width="1" fill="none" d="M -45.96,2762.52L 58.94,2602.55"/>
<path stroke="black" stroke-width="1" fill="none" d="M -440.31,-442.21L -440.31,-708.43"/>
<path stroke="black" stroke-width="1" fill="none" d="M 575.13,1177.24L 575.13,1000.22"/>
<path stroke="black" stroke-width="1" fill="none" d="M 352.41,-2930.66L 270.77,-2841.39"/>
<path stroke="black" stroke-width="1" fill="none" d="M -344.22,-1273.12L -209.24,-1273.12"/>
<path stroke="black" stroke-width="1" fill="none" d="M 114.99,-2583.23L 42.25,-2418.47"/>
<path stroke="black" stroke-width="1" fill="none" d="M -792.93,198.73L -710.62,166.93"/>
<path stroke="black" stroke-width="1" fill="none" d="M -903.20,1134.02L -891.87,1447.09"/>
<path stroke="black" stroke-width="1" fill="none" d="M -209.24,-1573.67L -209.24,-1273.12"/>
<path stroke="black" stroke-width="1" fill="none" d="M 245.23,1226.10L 332.93,1226.10"/>
<path stroke="black" stroke-width="1" fill="none" d="M 42.25,-2418.47L -26.39,-2232.50"/>
<path stroke="black" stroke-width="1" fill="none" d="M -671.01,2513.84L -580.83,2690.28"/>
<path stroke="black" stroke-width="1" fill="none" d="M 867.71,-25.07L 919.58,-272.06"/>
<path stroke="black" stroke-width="1" fill="none" d="M 436.24,1226.10L 436.24,1000.22"/>
<path stroke="black" stroke-width="1" fill="none" d="M -26.39,-2232.50L -90.87,-2027.88"/>
<path stroke="black" stroke-width="1" fill="none" d="M 326.21,2010.78L 391.68,1815.12"/>
<path stroke="black" stroke-width="1" fill="none" d="M 662.11,614.17L 738.85,419.09"/>
<path stroke="black" stroke-width="1" fill="none" d="M -107.62,-1048.80L -15.58,-840.46"/>
<path stroke="black" stroke-width="1" fill="none" d="M -440.31,-1041.83L -344.22,-1041.83"/>
<path stroke="black" stroke-width="1" fill="none" d="M -90.87,-2027.88L -151.57,-1807.07"/>
<path stroke="black" stroke-width="1" fill="none" d="M 1026.21,-1363.65L 1023.56,-1639.95"/>
<path stroke="black" stroke-width="1" fill="none" d="M 518.82,-3018.75L 435.45,-2990.17"/>
<path stroke="black" stroke-width="1" fill="none" d="M 435.45,-2990.17L 352.41,-2930.66"/>
<path stroke="black" stroke-width="1" fill="none" d="M -872.75,-92.22L -872.75,198.73"/>
<path stroke="black" stroke-width="1" fill="none" d="M 575.13,791.73L 662.11,614.17"/>
<path stroke="black" stroke-width="1" fill="none" d="M 203.99,-69.54L 257.16,212.44"/>
<path stroke="black" stroke-width="1" fill="none" d="M 827.66,-2748.90L 757.67,-2876.94"/>
<path stroke="black" stroke-width="1" fill="none" d="M -481.42,2817.60L -375.42,2892.02"/>
<path stroke="black" stroke-width="1" fill="none" d="M -851.95,-678.08L -874.97,-391.32"/>
<path stroke="black" stroke-width="1" fill="none" d="M 1009.06,-1906.34L 981.69,-2156.50"/>
<path stroke="black" stroke-width="1" fill="none" d="M -872.75,198.73L -872.75,511.67"/>
<path stroke="black" stroke-width="1" fill="none" d="M 757.67,-2876.94L 681.58,-2964.95"/>
<path stroke="black" stroke-width="1" fill="none" d="M 738.85,419.09L 807.28,205.87"/>
<path stroke="black" stroke-width="1" fill="none" d="M 889.51,-2583.19L 827.66,-2748.90"/>
<path stroke="black" stroke-width="1" fill="none" d="M 436.24,1000.22L 575.13,1000.22"/>
<path stroke="black" stroke-width="1" fill="none" d="M -440.31,-1150.39L -344.22,-1041.83"/>
<path stroke="black" stroke-width="1" fill="none" d="M -142.19,1052.67L -91.94,1216.22"/>
<path stroke="black" stroke-width="1" fill="none" d="M 807.28,205.87L 867.71,-25.07"/>
<path stroke="black" stroke-width="1" fill="none" d="M 159.92,2141.81L 246.62,2141.81"/>
<path stroke="black" stroke-width="1" fill="none" d="M -891.87,1447.09L -861.69,1750.99"/>
<path stroke="black" stroke-width="1" fill="none" d="M 84.06,1554.86L 159.92,1554.86"/>
<path stroke="black" stroke-width="1" fill="none" d="M -861.69,1750.99L -813.63,2036.24"/>
<path stroke="black" stroke-width="1" fill="none" d="M 67.09,-601.92L 140.50,-342.75"/>
<path stroke="black" stroke-width="1" fill="none" d="M -720.90,-1265.83L -720.90,-1116.38"/>
<path stroke="black" stroke-width="1" fill="none" d="M 191.37,-2724.93L 114.99,-2583.23"/>
<path stroke="black" stroke-width="1" fill="none" d="M -527.93,-39.58L -527.93,-225.29"/>
<path stroke="black" stroke-width="1" fill="none" d="M -265.56,2910.62L -154.71,2868.24"/>
<path stroke="black" stroke-width="1" fill="none" d="M -623.38,94.74L -527.93,-39.58"/>
<path stroke="black" stroke-width="1" fill="none" d="M -580.83,2690.28L -481.42,2817.60"/>
<path stroke="black" stroke-width="1" fill="none" d="M -91.94,1216.22L -39.05,1359.50"/>
<path stroke="black" stroke-width="1" fill="none" d="M -795.90,-913.35L -851.95,-678.08"/>
<path stroke="black" stroke-width="1" fill="none" d="M 58.94,2602.55L 159.92,2399.17"/>
<path stroke="black" stroke-width="1" fill="none" d="M -527.93,-225.29L -440.31,-442.21"/>
<path stroke="black" stroke-width="1" fill="none" d="M -872.75,511.67L -896.05,820.23"/>
<path stroke="black" stroke-width="1" fill="none" d="M -190.60,875.06L -142.19,1052.67"/>
<path stroke="black" stroke-width="1" fill="none" d="M -795.90,-1116.38L -720.90,-1116.38"/>
<path stroke="black" stroke-width="1" fill="none" d="M 981.69,-2156.50L 941.42,-2384.03"/>
<path stroke="black" stroke-width="1" fill="none" d="M 332.93,793.61L 332.93,1226.10"/>
<path stroke="black" stroke-width="1" fill="none" d="M 1023.56,-1639.95L 1009.06,-1906.34"/>
<path stroke="black" stroke-width="1" fill="none" d="M -209.24,-1209.49L -107.62,-1048.80"/>
<path stroke="black" stroke-width="1" fill="none" d="M 19.93,1462.58L 84.06,1554.86"/>
<path stroke="black" stroke-width="1" fill="none" d="M 919.58,-272.06L 962.36,-532.79"/>
<path stroke="black" stroke-width="1" fill="none" d="M -440.31,-225.29L -527.93,-225.29"/>
<path stroke="black" stroke-width="1" fill="none" d="M -15.58,-840.46L 67.09,-601.92"/>
<path stroke="black" stroke-width="1" fill="none" d="M 962.36,-532.79L 995.31,-804.33"/>
<path stroke="black" stroke-width="1" fill="none" d="M 299.23,500.19L 332.93,793.61"/>
<path stroke="black" stroke-width="1" fill="none" d="M 159.92,2141.81L 159.92,1877.05"/>
<path stroke="black" stroke-width="1" fill="none" d="M 246.62,2141.81L 326.21,2010.78"/>
<path stroke="black" stroke-width="1" fill="none" d="M 1017.35,-1083.00L 1026.21,-1363.65"/>
<path stroke="black" stroke-width="1" fill="none" d="M 511.24,1226.10L 563.83,1363.13"/>
<path stroke="black" stroke-width="1" fill="none" d="M 391.68,1815.12L 436.24,1545.21"/>
<path stroke="black" stroke-width="1" fill="none" d="M 601.42,-3012.96L 518.82,-3018.75"/>
<path stroke="black" stroke-width="1" fill="none" d="M 159.92,1877.05L 159.92,1554.86"/>
<path stroke="black" stroke-width="1" fill="none" d="M -440.31,-225.29L -440.31,-63.09"/>
<path stroke="black" stroke-width="1" fill="none" d="M 257.16,212.44L 299.23,500.19"/>
<path stroke="black" stroke-width="1" fill="none" d="M -720.90,-1116.38L -625.66,-1116.38"/>
<path stroke="black" stroke-width="1" fill="none" d="M -382.02,118.97L -331.78,306.59"/>
<path stroke="black" stroke-width="1" fill="none" d="M -375.42,2892.02L -265.56,2910.62"/>
<path stroke="black" stroke-width="1" fill="none" d="M 941.42,-2384.03L 889.51,-2583.19"/>
<g>
<rect stroke="black" stroke-width="1" fill="gray" opacity="0.5" x="897.08" y="-294.56" width="45.00" height="45.00"/>
<text font-family="sans-serif" x="914.58" y="-267.06">
2
</text>
</g>
<g>
<rect stroke="black" stroke-width="1" fill="gray" opacity="0.5" x="-38.08" y="-862.96" width="45.00" height="45.00"/>
<text font-family="sans-serif" x="-20.58" y="-835.46">
3
</text>
</g>
<g>
<rect stroke="black" stroke-width="1" fill="gray" opacity="0.5" x="-558.36" y="-1064.33" width="45.00" height="45.00"/>
<text font-family="sans-serif" x="-540.86" y="-1036.83">
5
</text>
</g>
<g>
<rect stroke="black" stroke-width="1" fill="gray" opacity="0.5" x="-404.52" y="96.47" width="45.00" height="45.00"/>
<text font-family="sans-serif" x="-387.02" y="123.97">
7
</text>
</g>
<g>
<rect stroke="black" stroke-width="1" fill="gray" opacity="0.5" x="36.44" y="2580.05" width="45.00" height="45.00"/>
<text font-family="sans-serif" x="53.94" y="2607.55">
8
</text>
</g>
<g>
<rect stroke="black" stroke-width="1" fill="gray" opacity="0.5" x="412.95" y="-3012.67" width="45.00" height="45.00"/>
<text font-family="sans-serif" x="430.45" y="-2985.17">
9
</text>
</g>
<g>
<rect stroke="black" stroke-width="1" fill="gray" opacity="0.5" x="-213.10" y="852.56" width="45.00" height="45.00"/>
<text font-family="sans-serif" x="-199.60" y="880.06">
10
</text>
</g>
<g>
<rect stroke="black" stroke-width="1" fill="gray" opacity="0.5" x="-462.81" y="-730.93" width="45.00" height="45.00"/>
<text font-family="sans-serif" x="-449.31" y="-703.43">
11
</text>
</g>
<g>
<rect stroke="black" stroke-width="1" fill="gray" opacity="0.5" x="-288.06" y="2888.12" width="45.00" height="45.00"/>
<text font-family="sans-serif" x="-274.56" y="2915.62">
13
</text>
</g>
<g>
<rect stroke="black" stroke-width="1" fill="gray" opacity="0.5" x="-68.46" y="2740.02" width="45.00" height="45.00"/>
<text font-family="sans-serif" x="-54.96" y="2767.52">
14
</text>
</g>
<g>
<rect stroke="black" stroke-width="1" fill="gray" opacity="0.5" x="-462.81" y="-247.79" width="45.00" height="45.00"/>
<text font-family="sans-serif" x="-449.31" y="-220.29">
15
</text>
</g>
<g>
<rect stroke="black" stroke-width="1" fill="gray" opacity="0.5" x="-231.74" y="-1231.99" width="45.00" height="45.00"/>
<text font-family="sans-serif" x="-218.24" y="-1204.49">
18
</text>
</g>
<g>
<rect stroke="black" stroke-width="1" fill="gray" opacity="0.5" x="-895.25" y="176.23" width="45.00" height="45.00"/>
<text font-family="sans-serif" x="-881.75" y="203.73">
19
</text>
</g>
<g>
<rect stroke="black" stroke-width="1" fill="gray" opacity="0.5" x="-164.69" y="1030.17" width="45.00" height="45.00"/>
<text font-family="sans-serif" x="-151.19" y="1057.67">
22
</text>
</g>
<g>
<rect stroke="black" stroke-width="1" fill="gray" opacity="0.5" x="-895.25" y="-114.72" width="45.00" height="45.00"/>
<text font-family="sans-serif" x="-881.75" y="-87.22">
23
</text>
</g>
<g>
<rect stroke="black" stroke-width="1" fill="gray" opacity="0.5" x="-114.44" y="1193.72" width="45.00" height="45.00"/>
<text font-family="sans-serif" x="-100.94" y="1221.22">
24
</text>
</g>
<g>
<rect stroke="black" stroke-width="1" fill="gray" opacity="0.5" x="-815.43" y="176.23" width="45.00" height="45.00"/>
<text font-family="sans-serif" x="-801.93" y="203.73">
28
</text>
</g>
<g>
<rect stroke="black" stroke-width="1" fill="gray" opacity="0.5" x="-925.70" y="1111.52" width="45.00" height="45.00"/>
<text font-family="sans-serif" x="-912.20" y="1139.02">
29
</text>
</g>
<g>
<rect stroke="black" stroke-width="1" fill="gray" opacity="0.5" x="413.74" y="1203.60" width="45.00" height="45.00"/>
<text font-family="sans-serif" x="427.24" y="1231.10">
30
</text>
</g>
<g>
<rect stroke="black" stroke-width="1" fill="gray" opacity="0.5" x="939.86" y="-555.29" width="45.00" height="45.00"/>
<text font-family="sans-serif" x="953.36" y="-527.79">
31
</text>
</g>
<g>
<rect stroke="black" stroke-width="1" fill="gray" opacity="0.5" x="329.91" y="-2953.16" width="45.00" height="45.00"/>
<text font-family="sans-serif" x="343.41" y="-2925.66">
32
</text>
</g>
<g>
<rect stroke="black" stroke-width="1" fill="gray" opacity="0.5" x="-550.43" y="-62.08" width="45.00" height="45.00"/>
<text font-family="sans-serif" x="-536.93" y="-34.58">
33
</text>
</g>
<g>
<rect stroke="black" stroke-width="1" fill="gray" opacity="0.5" x="552.63" y="1154.74" width="45.00" height="45.00"/>
<text font-family="sans-serif" x="566.13" y="1182.24">
34
</text>
</g>
<g>
<rect stroke="black" stroke-width="1" fill="gray" opacity="0.5" x="-648.16" y="-1138.88" width="45.00" height="45.00"/>
<text font-family="sans-serif" x="-634.66" y="-1111.38">
36
</text>
</g>
<g>
<rect stroke="black" stroke-width="1" fill="gray" opacity="0.5" x="-174.07" y="-1829.57" width="45.00" height="45.00"/>
<text font-family="sans-serif" x="-160.57" y="-1802.07">
38
</text>
</g>
<g>
<rect stroke="black" stroke-width="1" fill="gray" opacity="0.5" x="-130.12" y="-1071.30" width="45.00" height="45.00"/>
<text font-family="sans-serif" x="-116.62" y="-1043.80">
40
</text>
</g>
<g>
<rect stroke="black" stroke-width="1" fill="gray" opacity="0.5" x="92.49" y="-2605.73" width="45.00" height="45.00"/>
<text font-family="sans-serif" x="105.99" y="-2578.23">
41
</text>
</g>
<g>
<rect stroke="black" stroke-width="1" fill="gray" opacity="0.5" x="303.71" y="1988.28" width="45.00" height="45.00"/>
<text font-family="sans-serif" x="317.21" y="2015.78">
42
</text>
</g>
<g>
<rect stroke="black" stroke-width="1" fill="gray" opacity="0.5" x="-2.57" y="1440.08" width="45.00" height="45.00"/>
<text font-family="sans-serif" x="10.93" y="1467.58">
44
</text>
</g>
<g>
<rect stroke="black" stroke-width="1" fill="gray" opacity="0.5" x="-836.13" y="2013.74" width="45.00" height="45.00"/>
<text font-family="sans-serif" x="-822.63" y="2041.24">
46
</text>
</g>
<g>
<rect stroke="black" stroke-width="1" fill="gray" opacity="0.5" x="168.87" y="-2747.43" width="45.00" height="45.00"/>
<text font-family="sans-serif" x="182.37" y="-2719.93">
48
</text>
</g>
<g>
<rect stroke="black" stroke-width="1" fill="gray" opacity="0.5" x="248.27" y="-2863.89" width="45.00" height="45.00"/>
<text font-family="sans-serif" x="261.77" y="-2836.39">
52
</text>
</g>
<g>
<rect stroke="black" stroke-width="1" fill="gray" opacity="0.5" x="222.73" y="1203.60" width="45.00" height="45.00"/>
<text font-family="sans-serif" x="236.23" y="1231.10">
53
</text>
</g>
<g>
<rect stroke="black" stroke-width="1" fill="gray" opacity="0.5" x="-897.47" y="-413.82" width="45.00" height="45.00"/>
<text font-family="sans-serif" x="-883.97" y="-386.32">
54
</text>
</g>
<g>
<rect stroke="black" stroke-width="1" fill="gray" opacity="0.5" x="-366.72" y="-1064.33" width="45.00" height="45.00"/>
<text font-family="sans-serif" x="-353.22" y="-1036.83">
55
</text>
</g>
<g>
<rect stroke="black" stroke-width="1" fill="gray" opacity="0.5" x="-914.37" y="1424.59" width="45.00" height="45.00"/>
<text font-family="sans-serif" x="-900.87" y="1452.09">
56
</text>
</g>
<g>
<rect stroke="black" stroke-width="1" fill="gray" opacity="0.5" x="1001.06" y="-1662.45" width="45.00" height="45.00"/>
<text font-family="sans-serif" x="1014.56" y="-1634.95">
57
</text>
</g>
<g>
<rect stroke="black" stroke-width="1" fill="gray" opacity="0.5" x="-743.40" y="-1138.88" width="45.00" height="45.00"/>
<text font-family="sans-serif" x="-729.90" y="-1111.38">
58
</text>
</g>
<g>
<rect stroke="black" stroke-width="1" fill="gray" opacity="0.5" x="413.74" y="1522.71" width="45.00" height="45.00"/>
<text font-family="sans-serif" x="427.24" y="1550.21">
59
</text>
</g>
<g>
<rect stroke="black" stroke-width="1" fill="gray" opacity="0.5" x="-818.40" y="-935.85" width="45.00" height="45.00"/>
<text font-family="sans-serif" x="-804.90" y="-908.35">
60
</text>
</g>
<g>
<rect stroke="black" stroke-width="1" fill="gray" opacity="0.5" x="-743.40" y="-1288.33" width="45.00" height="45.00"/>
<text font-family="sans-serif" x="-729.90" y="-1260.83">
62
</text>
</g>
<g>
<rect stroke="black" stroke-width="1" fill="gray" opacity="0.5" x="-884.19" y="1728.49" width="45.00" height="45.00"/>
<text font-family="sans-serif" x="-870.69" y="1755.99">
64
</text>
</g>
<g>
<rect stroke="black" stroke-width="1" fill="gray" opacity="0.5" x="-366.72" y="-1295.62" width="45.00" height="45.00"/>
<text font-family="sans-serif" x="-353.22" y="-1268.12">
65
</text>
</g>
<g>
<rect stroke="black" stroke-width="1" fill="gray" opacity="0.5" x="735.17" y="-2899.44" width="45.00" height="45.00"/>
<text font-family="sans-serif" x="748.67" y="-2871.94">
66
</text>
</g>
<g>
<rect stroke="black" stroke-width="1" fill="gray" opacity="0.5" x="-61.55" y="1337.00" width="45.00" height="45.00"/>
<text font-family="sans-serif" x="-48.05" y="1364.50">
67
</text>
</g>
<g>
<rect stroke="black" stroke-width="1" fill="gray" opacity="0.5" x="224.12" y="2119.31" width="45.00" height="45.00"/>
<text font-family="sans-serif" x="237.62" y="2146.81">
70
</text>
</g>
<g>
<rect stroke="black" stroke-width="1" fill="gray" opacity="0.5" x="1003.71" y="-1386.15" width="45.00" height="45.00"/>
<text font-family="sans-serif" x="1017.21" y="-1358.65">
72
</text>
</g>
<g>
<rect stroke="black" stroke-width="1" fill="gray" opacity="0.5" x="-177.21" y="2845.74" width="45.00" height="45.00"/>
<text font-family="sans-serif" x="-163.71" y="2873.24">
74
</text>
</g>
<g>
<rect stroke="black" stroke-width="1" fill="gray" opacity="0.5" x="-260.30" y="666.37" width="45.00" height="45.00"/>
<text font-family="sans-serif" x="-246.80" y="693.87">
78
</text>
</g>
<g>
<rect stroke="black" stroke-width="1" fill="gray" opacity="0.5" x="-645.88" y="72.24" width="45.00" height="45.00"/>
<text font-family="sans-serif" x="-632.38" y="99.74">
79
</text>
</g>
<g>
<rect stroke="black" stroke-width="1" fill="gray" opacity="0.5" x="118.00" y="-365.25" width="45.00" height="45.00"/>
<text font-family="sans-serif" x="131.50" y="-337.75">
81
</text>
</g>
<g>
<rect stroke="black" stroke-width="1" fill="gray" opacity="0.5" x="-462.81" y="-1064.33" width="45.00" height="45.00"/>
<text font-family="sans-serif" x="-449.31" y="-1036.83">
82
</text>
</g>
<g>
<rect stroke="black" stroke-width="1" fill="gray" opacity="0.5" x="994.85" y="-1105.50" width="45.00" height="45.00"/>
<text font-family="sans-serif" x="1008.35" y="-1078.00">
83
</text>
</g>
<g>
<rect stroke="black" stroke-width="1" fill="gray" opacity="0.5" x="-918.55" y="797.73" width="45.00" height="45.00"/>
<text font-family="sans-serif" x="-905.05" y="825.23">
84
</text>
</g>
<g>
<rect stroke="black" stroke-width="1" fill="gray" opacity="0.5" x="310.43" y="771.11" width="45.00" height="45.00"/>
<text font-family="sans-serif" x="323.93" y="798.61">
87
</text>
</g>
<g>
<rect stroke="black" stroke-width="1" fill="gray" opacity="0.5" x="61.56" y="1532.36" width="45.00" height="45.00"/>
<text font-family="sans-serif" x="75.06" y="1559.86">
90
</text>
</g>
<g>
<rect stroke="black" stroke-width="1" fill="gray" opacity="0.5" x="369.18" y="1792.62" width="45.00" height="45.00"/>
<text font-family="sans-serif" x="382.68" y="1820.12">
92
</text>
</g>
<g>
<rect stroke="black" stroke-width="1" fill="gray" opacity="0.5" x="-48.89" y="-2255.00" width="45.00" height="45.00"/>
<text font-family="sans-serif" x="-35.39" y="-2227.50">
93
</text>
</g>
<g>
<rect stroke="black" stroke-width="1" fill="gray" opacity="0.5" x="-818.40" y="-1138.88" width="45.00" height="45.00"/>
<text font-family="sans-serif" x="-804.90" y="-1111.38">
94
</text>
</g>
<g>
<rect stroke="black" stroke-width="1" fill="gray" opacity="0.5" x="552.63" y="769.23" width="45.00" height="45.00"/>
<text font-family="sans-serif" x="566.13" y="796.73">
95
</text>
</g>
<g>
<rect stroke="black" stroke-width="1" fill="gray" opacity="0.5" x="488.74" y="1203.60" width="45.00" height="45.00"/>
<text font-family="sans-serif" x="498.24" y="1231.10">
103
</text>
</g>
<g>
<rect stroke="black" stroke-width="1" fill="gray" opacity="0.5" x="-397.92" y="2869.52" width="45.00" height="45.00"/>
<text font-family="sans-serif" x="-388.42" y="2897.02">
104
</text>
</g>
<g>
<rect stroke="black" stroke-width="1" fill="gray" opacity="0.5" x="276.73" y="477.69" width="45.00" height="45.00"/>
<text font-family="sans-serif" x="286.23" y="505.19">
105
</text>
</g>
<g>
<rect stroke="black" stroke-width="1" fill="gray" opacity="0.5" x="659.08" y="-2987.45" width="45.00" height="45.00"/>
<text font-family="sans-serif" x="668.58" y="-2959.95">
106
</text>
</g>
<g>
<rect stroke="black" stroke-width="1" fill="gray" opacity="0.5" x="-231.74" y="-1596.17" width="45.00" height="45.00"/>
<text font-family="sans-serif" x="-222.24" y="-1568.67">
107
</text>
</g>
<g>
<rect stroke="black" stroke-width="1" fill="gray" opacity="0.5" x="639.61" y="591.67" width="45.00" height="45.00"/>
<text font-family="sans-serif" x="649.11" y="619.17">
108
</text>
</g>
<g>
<rect stroke="black" stroke-width="1" fill="gray" opacity="0.5" x="-462.81" y="-1172.89" width="45.00" height="45.00"/>
<text font-family="sans-serif" x="-453.31" y="-1145.39">
110
</text>
</g>
<g>
<rect stroke="black" stroke-width="1" fill="gray" opacity="0.5" x="-603.33" y="2667.78" width="45.00" height="45.00"/>
<text font-family="sans-serif" x="-593.83" y="2695.28">
111
</text>
</g>
<g>
<rect stroke="black" stroke-width="1" fill="gray" opacity="0.5" x="-771.89" y="2270.89" width="45.00" height="45.00"/>
<text font-family="sans-serif" x="-762.39" y="2298.39">
112
</text>
</g>
<g>
<rect stroke="black" stroke-width="1" fill="gray" opacity="0.5" x="496.32" y="-3041.25" width="45.00" height="45.00"/>
<text font-family="sans-serif" x="505.82" y="-3013.75">
115
</text>
</g>
<g>
<rect stroke="black" stroke-width="1" fill="gray" opacity="0.5" x="181.49" y="-92.04" width="45.00" height="45.00"/>
<text font-family="sans-serif" x="190.99" y="-64.54">
118
</text>
</g>
<g>
<rect stroke="black" stroke-width="1" fill="gray" opacity="0.5" x="-354.28" y="284.09" width="45.00" height="45.00"/>
<text font-family="sans-serif" x="-344.78" y="311.59">
119
</text>
</g>
<g>
<rect stroke="black" stroke-width="1" fill="gray" opacity="0.5" x="986.56" y="-1928.84" width="45.00" height="45.00"/>
<text font-family="sans-serif" x="996.06" y="-1901.34">
120
</text>
</g>
<g>
<rect stroke="black" stroke-width="1" fill="gray" opacity="0.5" x="310.43" y="1203.60" width="45.00" height="45.00"/>
<text font-family="sans-serif" x="319.93" y="1231.10">
122
</text>
</g>
<g>
<rect stroke="black" stroke-width="1" fill="gray" opacity="0.5" x="-462.81" y="-464.71" width="45.00" height="45.00"/>
<text font-family="sans-serif" x="-453.31" y="-437.21">
123
</text>
</g>
<g>
<rect stroke="black" stroke-width="1" fill="gray" opacity="0.5" x="-693.51" y="2491.34" width="45.00" height="45.00"/>
<text font-family="sans-serif" x="-684.01" y="2518.84">
124
</text>
</g>
<g>
<rect stroke="black" stroke-width="1" fill="gray" opacity="0.5" x="-113.37" y="-2050.38" width="45.00" height="45.00"/>
<text font-family="sans-serif" x="-103.87" y="-2022.88">
125
</text>
</g>
<g>
<rect stroke="black" stroke-width="1" fill="gray" opacity="0.5" x="-503.92" y="2795.10" width="45.00" height="45.00"/>
<text font-family="sans-serif" x="-494.42" y="2822.60">
128
</text>
</g>
<g>
<rect stroke="black" stroke-width="1" fill="gray" opacity="0.5" x="972.81" y="-826.83" width="45.00" height="45.00"/>
<text font-family="sans-serif" x="982.31" y="-799.33">
132
</text>
</g>
<g>
<rect stroke="black" stroke-width="1" fill="gray" opacity="0.5" x="-550.43" y="-247.79" width="45.00" height="45.00"/>
<text font-family="sans-serif" x="-540.93" y="-220.29">
135
</text>
</g>
<g>
<rect stroke="black" stroke-width="1" fill="gray" opacity="0.5" x="541.33" y="1340.63" width="45.00" height="45.00"/>
<text font-family="sans-serif" x="550.83" y="1368.13">
137
</text>
</g>
<g>
<rect stroke="black" stroke-width="1" fill="gray" opacity="0.5" x="845.21" y="-47.57" width="45.00" height="45.00"/>
<text font-family="sans-serif" x="854.71" y="-20.07">
138
</text>
</g>
<g>
<rect stroke="black" stroke-width="1" fill="gray" opacity="0.5" x="137.42" y="1344.02" width="45.00" height="45.00"/>
<text font-family="sans-serif" x="146.92" y="1371.52">
140
</text>
</g>
<g>
<rect stroke="black" stroke-width="1" fill="gray" opacity="0.5" x="234.66" y="189.94" width="45.00" height="45.00"/>
<text font-family="sans-serif" x="244.16" y="217.44">
141
</text>
</g>
<g>
<rect stroke="black" stroke-width="1" fill="gray" opacity="0.5" x="-231.74" y="-1295.62" width="45.00" height="45.00"/>
<text font-family="sans-serif" x="-222.24" y="-1268.12">
142
</text>
</g>
<g>
<rect stroke="black" stroke-width="1" fill="gray" opacity="0.5" x="44.59" y="-624.42" width="45.00" height="45.00"/>
<text font-family="sans-serif" x="54.09" y="-596.92">
143
</text>
</g>
<g>
<rect stroke="black" stroke-width="1" fill="gray" opacity="0.5" x="137.42" y="1532.36" width="45.00" height="45.00"/>
<text font-family="sans-serif" x="146.92" y="1559.86">
145
</text>
</g>
<g>
<rect stroke="black" stroke-width="1" fill="gray" opacity="0.5" x="137.42" y="1854.55" width="45.00" height="45.00"/>
<text font-family="sans-serif" x="146.92" y="1882.05">
147
</text>
</g>
<g>
<rect stroke="black" stroke-width="1" fill="gray" opacity="0.5" x="578.92" y="-3035.46" width="45.00" height="45.00"/>
<text font-family="sans-serif" x="588.42" y="-3007.96">
148
</text>
</g>
<g>
<rect stroke="black" stroke-width="1" fill="gray" opacity="0.5" x="413.74" y="977.72" width="45.00" height="45.00"/>
<text font-family="sans-serif" x="423.24" y="1005.22">
150
</text>
</g>
<g>
<rect stroke="black" stroke-width="1" fill="gray" opacity="0.5" x="959.19" y="-2179.00" width="45.00" height="45.00"/>
<text font-family="sans-serif" x="968.69" y="-2151.50">
151
</text>
</g>
<g>
<rect stroke="black" stroke-width="1" fill="gray" opacity="0.5" x="137.42" y="2376.67" width="45.00" height="45.00"/>
<text font-family="sans-serif" x="146.92" y="2404.17">
152
</text>
</g>
<g>
<rect stroke="black" stroke-width="1" fill="gray" opacity="0.5" x="-733.12" y="144.43" width="45.00" height="45.00"/>
<text font-family="sans-serif" x="-723.62" y="171.93">
153
</text>
</g>
<g>
<rect stroke="black" stroke-width="1" fill="gray" opacity="0.5" x="867.01" y="-2605.69" width="45.00" height="45.00"/>
<text font-family="sans-serif" x="876.51" y="-2578.19">
155
</text>
</g>
<g>
<rect stroke="black" stroke-width="1" fill="gray" opacity="0.5" x="805.16" y="-2771.40" width="45.00" height="45.00"/>
<text font-family="sans-serif" x="814.66" y="-2743.90">
156
</text>
</g>
<g>
<rect stroke="black" stroke-width="1" fill="gray" opacity="0.5" x="918.92" y="-2406.53" width="45.00" height="45.00"/>
<text font-family="sans-serif" x="928.42" y="-2379.03">
157
</text>
</g>
<g>
<rect stroke="black" stroke-width="1" fill="gray" opacity="0.5" x="-895.25" y="489.17" width="45.00" height="45.00"/>
<text font-family="sans-serif" x="-885.75" y="516.67">
158
</text>
</g>
<g>
<rect stroke="black" stroke-width="1" fill="gray" opacity="0.5" x="716.35" y="396.59" width="45.00" height="45.00"/>
<text font-family="sans-serif" x="725.85" y="424.09">
160
</text>
</g>
<g>
<rect stroke="black" stroke-width="1" fill="gray" opacity="0.5" x="19.75" y="-2440.97" width="45.00" height="45.00"/>
<text font-family="sans-serif" x="29.25" y="-2413.47">
163
</text>
</g>
<g>
<rect stroke="black" stroke-width="1" fill="gray" opacity="0.5" x="-306.98" y="475.52" width="45.00" height="45.00"/>
<text font-family="sans-serif" x="-297.48" y="503.02">
165
</text>
</g>
<g>
<rect stroke="black" stroke-width="1" fill="gray" opacity="0.5" x="137.42" y="2119.31" width="45.00" height="45.00"/>
<text font-family="sans-serif" x="146.92" y="2146.81">
167
</text>
</g>
<g>
<rect stroke="black" stroke-width="1" fill="gray" opacity="0.5" x="784.78" y="183.37" width="45.00" height="45.00"/>
<text font-family="sans-serif" x="794.28" y="210.87">
168
</text>
</g>
<g>
<rect stroke="black" stroke-width="1" fill="gray" opacity="0.5" x="552.63" y="977.72" width="45.00" height="45.00"/>
<text font-family="sans-serif" x="562.13" y="1005.22">
170
</text>
</g>
<g>
<rect stroke="black" stroke-width="1" fill="gray" opacity="0.5" x="-462.81" y="-85.59" width="45.00" height="45.00"/>
<text font-family="sans-serif" x="-453.31" y="-58.09">
171
</text>
</g>
<g>
<rect stroke="black" stroke-width="1" fill="gray" opacity="0.5" x="-874.45" y="-700.58" width="45.00" height="45.00"/>
<text font-family="sans-serif" x="-864.95" y="-673.08">
172
</text>
</g>
<g>
<rect stroke="black" stroke-width="1" fill="gray" opacity="0.5" x="-445.31" y="-418.71" width="10.00" height="169.92"/>
<text font-family="sans-serif" x="-453.31" y="-328.75">
247
</text>
</g>
<g>
<rect stroke="black" stroke-width="1" fill="gray" opacity="0.5" x="154.92" y="1390.02" width="10.00" height="141.34"/>
<text font-family="sans-serif" x="146.92" y="1465.69">
248
</text>
</g>
<g>
<rect stroke="black" stroke-width="1" fill="gray" opacity="0.5" x="-349.22" y="-1249.62" width="10.00" height="184.29"/>
<text font-family="sans-serif" x="-357.22" y="-1152.47">
249
</text>
</g>
<g>
<rect stroke="black" stroke-width="1" fill="gray" opacity="0.5" x="-445.31" y="-1018.33" width="10.00" height="286.40"/>
<text font-family="sans-serif" x="-453.31" y="-870.13">
250
</text>
</g>
<g>
<rect stroke="black" stroke-width="1" fill="gray" opacity="0.5" x="570.13" y="815.23" width="10.00" height="161.49"/>
<text font-family="sans-serif" x="562.13" y="900.98">
251
</text>
</g>
<g>
<rect stroke="black" stroke-width="1" fill="gray" opacity="0.5" x="154.92" y="2165.31" width="10.00" height="210.36"/>
<text font-family="sans-serif" x="146.92" y="2275.49">
252
</text>
</g>
<g>
<rect stroke="black" stroke-width="1" fill="gray" opacity="0.5" x="-445.31" y="-1126.89" width="10.00" height="61.56"/>
<text font-family="sans-serif" x="-453.31" y="-1091.11">
253
</text>
</g>
<g>
<rect stroke="black" stroke-width="1" fill="gray" opacity="0.5" x="-800.90" y="-1092.88" width="10.00" height="156.03"/>
<text font-family="sans-serif" x="-808.90" y="-1009.86">
254
</text>
</g>
<g>
<rect stroke="black" stroke-width="1" fill="gray" opacity="0.5" x="-214.24" y="-1249.62" width="10.00" height="16.64"/>
<text font-family="sans-serif" x="-222.24" y="-1236.30">
255
</text>
</g>
<g>
<rect stroke="black" stroke-width="1" fill="gray" opacity="0.5" x="431.24" y="1249.60" width="10.00" height="272.11"/>
<text font-family="sans-serif" x="423.24" y="1390.65">
256
</text>
</g>
<g>
<rect stroke="black" stroke-width="1" fill="gray" opacity="0.5" x="-445.31" y="-684.93" width="10.00" height="219.22"/>
<text font-family="sans-serif" x="-453.31" y="-570.32">
257
</text>
</g>
<g>
<rect stroke="black" stroke-width="1" fill="gray" opacity="0.5" x="570.13" y="1023.72" width="10.00" height="130.02"/>
<text font-family="sans-serif" x="562.13" y="1093.73">
258
</text>
</g>
<g>
<rect stroke="black" stroke-width="1" fill="gray" opacity="0.5" x="-214.24" y="-1550.17" width="10.00" height="253.55"/>
<text font-family="sans-serif" x="-222.24" y="-1418.40">
259
</text>
</g>
<g>
<rect stroke="black" stroke-width="1" fill="gray" opacity="0.5" x="431.24" y="1023.72" width="10.00" height="178.88"/>
<text font-family="sans-serif" x="423.24" y="1118.16">
260
</text>
</g>
<g>
<rect stroke="black" stroke-width="1" fill="gray" opacity="0.5" x="-877.75" y="-68.72" width="10.00" height="243.95"/>
<text font-family="sans-serif" x="-885.75" y="58.25">
261
</text>
</g>
<g>
<rect stroke="black" stroke-width="1" fill="gray" opacity="0.5" x="-877.75" y="222.23" width="10.00" height="265.95"/>
<text font-family="sans-serif" x="-885.75" y="360.20">
262
</text>
</g>
<g>
<rect stroke="black" stroke-width="1" fill="gray" opacity="0.5" x="-725.90" y="-1242.33" width="10.00" height="102.45"/>
<text font-family="sans-serif" x="-733.90" y="-1186.10">
263
</text>
</g>
<g>
<rect stroke="black" stroke-width="1" fill="gray" opacity="0.5" x="-532.93" y="-201.79" width="10.00" height="138.71"/>
<text font-family="sans-serif" x="-540.93" y="-127.44">
264
</text>
</g>
<g>
<rect stroke="black" stroke-width="1" fill="gray" opacity="0.5" x="327.93" y="817.11" width="10.00" height="385.49"/>
<text font-family="sans-serif" x="319.93" y="1014.85">
265
</text>
</g>
<g>
<rect stroke="black" stroke-width="1" fill="gray" opacity="0.5" x="154.92" y="1900.55" width="10.00" height="217.75"/>
<text font-family="sans-serif" x="146.92" y="2014.43">
266
</text>
</g>
<g>
<rect stroke="black" stroke-width="1" fill="gray" opacity="0.5" x="154.92" y="1578.36" width="10.00" height="275.19"/>
<text font-family="sans-serif" x="146.92" y="1720.96">
267
</text>
</g>
<g>
<rect stroke="black" stroke-width="1" fill="gray" opacity="0.5" x="-445.31" y="-201.79" width="10.00" height="115.20"/>
<text font-family="sans-serif" x="-453.31" y="-139.19">
268
</text>
</g>
</svg>
