<?xml version="1.0" encoding="UTF-8"?>
<svg xmlns:inkscape="http://www.inkscape.org/namespaces/inkscape" xmlns="http://www.w3.org/2000/svg" width="100%%" height="100%%" viewBox="-30.5 -30.5 61 421">
<path stroke="black" stroke-width="1" fill="none" d="M 0.00,300.00L 0.00,360.00"/>
<path stroke="black" stroke-width="1" fill="none" d="M 0.00,240.00L 0.00,300.00"/>
<path stroke="black" stroke-width="1" fill="none" d="M 0.00,180.00L 0.00,240.00"/>
<path stroke="black" stroke-width="1" fill="none" d="M 0.00,120.00L 0.00,180.00"/>
<path stroke="black" stroke-width="1" fill="none" d="M 0.00,60.00L 0.00,120.00"/>
<path stroke="black" stroke-width="1" fill="none" d="M 0.00,0.00L 0.00,60.00"/>
<g>
<rect stroke="black" stroke-width="1" fill="gray" opacity="0.5" x="-22.50" y="277.50" width="45.00" height="45.00"/>
<text font-family="sans-serif" x="-13.00" y="305.00">
184
</text>
</g>
<g>
<rect stroke="black" stroke-width="1" fill="gray" opacity="0.5" x="-22.50" y="-22.50" width="45.00" height="45.00"/>
<text font-family="sans-serif" x="-13.00" y="5.00">
218
</text>
</g>
<g>
<rect stroke="black" stroke-width="1" fill="gray" opacity="0.5" x="-22.50" y="97.50" width="45.00" height="45.00"/>
<text font-family="sans-serif" x="-13.00" y="125.00">
208
</text>
</g>
<g>
<rect stroke="black" stroke-width="1" fill="gray" opacity="0.5" x="-22.50" y="217.50" width="45.00" height="45.00"/>
<text font-family="sans-serif" x="-13.00" y="245.00">
189
</text>
</g>
<g>
<rect stroke="black" stroke-width="1" fill="gray" opacity="0.5" x="-22.50" y="337.50" width="45.00" height="45.00"/>
<text font-family="sans-serif" x="-13.00" y="365.00">
183
</text>
</g>
<g>
<rect stroke="black" stroke-width="1" fill="gray" opacity="0.5" x="-22.50" y="37.50" width="45.00" height="45.00"/>
<text font-family="sans-serif" x="-13.00" y="65.00">
215
</text>
</g>
<g>
<rect stroke="black" stroke-width="1" fill="gray" opacity="0.5" x="-22.50" y="157.50" width="45.00" height="45.00"/>
<text font-family="sans-serif" x="-13.00" y="185.00">
203
</text>
</g>
</svg>
