<?xml version="1.0" encoding="UTF-8"?>
<svg xmlns:inkscape="http://www.inkscape.org/namespaces/inkscape" xmlns="http://www.w3.org/2000/svg" width="100%%" height="100%%" viewBox="-399.771 -171.609 1678.35 687.28">
<path stroke="black" stroke-width="1" fill="none" d="M 758.54,-153.99L 758.54,-153.99"/>
<path stroke="black" stroke-width="1" fill="none" d="M -205.57,-93.99L -83.02,-93.99"/>
<path stroke="black" stroke-width="1" fill="none" d="M 1024.14,-18.77L 758.54,-18.77"/>
<path stroke="black" stroke-width="1" fill="none" d="M 758.54,-18.77L 1039.37,-18.77"/>
<path stroke="black" stroke-width="1" fill="none" d="M 1039.37,-18.77L 758.54,-18.77"/>
<path stroke="black" stroke-width="1" fill="none" d="M -216.93,0.00L 758.54,0.00"/>
<path stroke="black" stroke-width="1" fill="none" d="M 758.54,297.83L 1238.58,11.23"/>
<path stroke="black" stroke-width="1" fill="none" d="M -301.93,147.37L 758.54,147.37"/>
<path stroke="black" stroke-width="1" fill="none" d="M -301.93,147.37L 758.54,147.37"/>
<path stroke="black" stroke-width="1" fill="none" d="M 94.44,297.83L 1061.75,147.37"/>
<path stroke="black" stroke-width="1" fill="none" d="M -144.31,0.00L 758.54,0.00"/>
<path stroke="black" stroke-width="1" fill="none" d="M -144.31,0.00L 1024.14,0.00"/>
<path stroke="black" stroke-width="1" fill="none" d="M 966.30,11.23L 1238.58,11.23"/>
<path stroke="black" stroke-width="1" fill="none" d="M -301.93,29.53L 758.54,29.53"/>
<path stroke="black" stroke-width="1" fill="none" d="M 758.54,56.46L 928.68,56.46"/>
<path stroke="black" stroke-width="1" fill="none" d="M 758.54,86.46L 51.83,86.46"/>
<path stroke="black" stroke-width="1" fill="none" d="M 928.68,104.76L 758.54,104.76"/>
<path stroke="black" stroke-width="1" fill="none" d="M -301.93,147.37L 758.54,147.37"/>
<path stroke="black" stroke-width="1" fill="none" d="M 51.83,147.37L 758.54,147.37"/>
<path stroke="black" stroke-width="1" fill="none" d="M 966.30,147.37L 1008.91,147.37"/>
<path stroke="black" stroke-width="1" fill="none" d="M 1008.91,147.37L 758.54,147.37"/>
<path stroke="black" stroke-width="1" fill="none" d="M 1061.75,147.37L 1238.58,147.37"/>
<path stroke="black" stroke-width="1" fill="none" d="M -382.16,222.60L -344.54,222.60"/>
<path stroke="black" stroke-width="1" fill="none" d="M 51.83,222.60L 94.44,222.60"/>
<path stroke="black" stroke-width="1" fill="none" d="M 94.44,222.60L -54.94,222.60"/>
<path stroke="black" stroke-width="1" fill="none" d="M -54.94,222.60L -8.17,222.60"/>
<path stroke="black" stroke-width="1" fill="none" d="M -8.17,222.60L 758.54,222.60"/>
<path stroke="black" stroke-width="1" fill="none" d="M 758.54,260.22L 51.83,260.22"/>
<path stroke="black" stroke-width="1" fill="none" d="M 758.54,293.83L -124.54,293.83"/>
<path stroke="black" stroke-width="1" fill="none" d="M -344.54,297.83L -301.93,297.83"/>
<path stroke="black" stroke-width="1" fill="none" d="M -241.93,297.83L -124.54,297.83"/>
<path stroke="black" stroke-width="1" fill="none" d="M 94.44,297.83L -71.70,297.83"/>
<path stroke="black" stroke-width="1" fill="none" d="M -71.70,297.83L -54.94,297.83"/>
<path stroke="black" stroke-width="1" fill="none" d="M -54.94,297.83L 758.54,297.83"/>
<path stroke="black" stroke-width="1" fill="none" d="M 758.54,297.83L -204.31,297.83"/>
<path stroke="black" stroke-width="1" fill="none" d="M -204.31,297.83L 966.30,297.83"/>
<path stroke="black" stroke-width="1" fill="none" d="M 966.30,297.83L 758.54,297.83"/>
<path stroke="black" stroke-width="1" fill="none" d="M 758.54,297.83L 758.54,297.83"/>
<path stroke="black" stroke-width="1" fill="none" d="M -124.54,335.44L 51.83,335.44"/>
<path stroke="black" stroke-width="1" fill="none" d="M -301.93,373.06L -261.24,373.06"/>
<path stroke="black" stroke-width="1" fill="none" d="M -261.24,373.06L -241.93,373.06"/>
<path stroke="black" stroke-width="1" fill="none" d="M -241.93,373.06L 51.83,373.06"/>
<path stroke="black" stroke-width="1" fill="none" d="M 51.83,373.06L -109.31,373.06"/>
<path stroke="black" stroke-width="1" fill="none" d="M -382.16,403.06L -261.24,403.06"/>
<path stroke="black" stroke-width="1" fill="none" d="M -204.31,417.16L 966.30,417.16"/>
<path stroke="black" stroke-width="1" fill="none" d="M -216.93,445.67L 1013.33,445.67"/>
<path stroke="black" stroke-width="1" fill="none" d="M -109.31,448.29L -71.70,448.29"/>
<path stroke="black" stroke-width="1" fill="none" d="M -216.93,0.00L -216.93,445.67"/>
<path stroke="black" stroke-width="1" fill="none" d="M -382.16,222.60L -382.16,403.06"/>
<path stroke="black" stroke-width="1" fill="none" d="M -205.57,-93.99L 758.54,-93.99"/>
<path stroke="black" stroke-width="1" fill="none" d="M -144.31,-19.22L -144.31,0.00"/>
<path stroke="black" stroke-width="1" fill="none" d="M -344.54,222.60L -344.54,297.83"/>
<path stroke="black" stroke-width="1" fill="none" d="M -301.93,29.53L -301.93,147.37"/>
<path stroke="black" stroke-width="1" fill="none" d="M -301.93,147.37L -301.93,297.83"/>
<path stroke="black" stroke-width="1" fill="none" d="M -301.93,297.83L -301.93,373.06"/>
<path stroke="black" stroke-width="1" fill="none" d="M -261.24,373.06L -261.24,403.06"/>
<path stroke="black" stroke-width="1" fill="none" d="M -241.93,297.83L -241.93,373.06"/>
<path stroke="black" stroke-width="1" fill="none" d="M 758.54,56.46L 758.54,147.37"/>
<path stroke="black" stroke-width="1" fill="none" d="M 758.54,86.46L 758.54,147.37"/>
<path stroke="black" stroke-width="1" fill="none" d="M -124.54,293.83L -124.54,297.83"/>
<path stroke="black" stroke-width="1" fill="none" d="M 1024.14,-18.77L 1024.14,0.00"/>
<path stroke="black" stroke-width="1" fill="none" d="M 51.83,86.46L 51.83,147.37"/>
<path stroke="black" stroke-width="1" fill="none" d="M 51.83,147.37L 51.83,222.60"/>
<path stroke="black" stroke-width="1" fill="none" d="M 51.83,222.60L 51.83,260.22"/>
<path stroke="black" stroke-width="1" fill="none" d="M 94.44,222.60L 94.44,260.22"/>
<path stroke="black" stroke-width="1" fill="none" d="M 94.44,260.22L 94.44,297.83"/>
<path stroke="black" stroke-width="1" fill="none" d="M -109.31,335.44L -109.31,373.06"/>
<path stroke="black" stroke-width="1" fill="none" d="M -109.31,373.06L -109.31,448.29"/>
<path stroke="black" stroke-width="1" fill="none" d="M -71.70,297.83L -71.70,448.29"/>
<path stroke="black" stroke-width="1" fill="none" d="M -54.94,222.60L -54.94,297.83"/>
<path stroke="black" stroke-width="1" fill="none" d="M 928.68,56.46L 928.68,104.76"/>
<path stroke="black" stroke-width="1" fill="none" d="M 758.54,-153.99L 758.54,-106.61"/>
<path stroke="black" stroke-width="1" fill="none" d="M 758.54,-106.61L 758.54,-93.99"/>
<path stroke="black" stroke-width="1" fill="none" d="M 758.54,29.53L 758.54,104.76"/>
<path stroke="black" stroke-width="1" fill="none" d="M 758.54,-18.77L 758.54,0.00"/>
<path stroke="black" stroke-width="1" fill="none" d="M -204.31,297.83L -204.31,417.16"/>
<path stroke="black" stroke-width="1" fill="none" d="M 966.30,11.23L 966.30,104.76"/>
<path stroke="black" stroke-width="1" fill="none" d="M 966.30,147.37L 966.30,222.60"/>
<path stroke="black" stroke-width="1" fill="none" d="M 966.30,297.83L 966.30,417.16"/>
<path stroke="black" stroke-width="1" fill="none" d="M 1008.91,147.37L 1008.91,222.60"/>
<path stroke="black" stroke-width="1" fill="none" d="M 758.54,104.76L 758.54,147.37"/>
<path stroke="black" stroke-width="1" fill="none" d="M 1039.37,-93.99L 1039.37,-18.77"/>
<path stroke="black" stroke-width="1" fill="none" d="M 1238.58,11.23L 1238.58,147.37"/>
<path stroke="black" stroke-width="1" fill="none" d="M 758.54,-18.77L 758.54,0.00"/>
<path stroke="black" stroke-width="1" fill="none" d="M 758.54,-153.99L 758.54,-93.99"/>
<path stroke="black" stroke-width="1" fill="none" d="M 758.54,147.37L 758.54,147.37"/>
<path stroke="black" stroke-width="1" fill="none" d="M 758.54,147.37L 758.54,147.37"/>
<path stroke="black" stroke-width="1" fill="none" d="M 758.54,147.37L 758.54,147.37"/>
<path stroke="black" stroke-width="1" fill="none" d="M 758.54,147.37L 758.54,147.37"/>
<path stroke="black" stroke-width="1" fill="none" d="M 758.54,147.37L 758.54,147.37"/>
<path stroke="black" stroke-width="1" fill="none" d="M 758.54,147.37L 758.54,293.83"/>
<path stroke="black" stroke-width="1" fill="none" d="M 758.54,147.37L 758.54,147.37"/>
<path stroke="black" stroke-width="1" fill="none" d="M 758.54,147.37L 758.54,147.37"/>
<path stroke="black" stroke-width="1" fill="none" d="M 758.54,147.37L 758.54,147.37"/>
<path stroke="black" stroke-width="1" fill="none" d="M 758.54,147.37L 758.54,147.37"/>
<path stroke="black" stroke-width="1" fill="none" d="M 758.54,147.37L 51.83,147.37"/>
<path stroke="black" stroke-width="1" fill="none" d="M 758.54,147.37L 758.54,260.22"/>
<path stroke="black" stroke-width="1" fill="none" d="M -124.54,297.83L 51.83,297.83"/>
<path stroke="black" stroke-width="1" fill="none" d="M -124.54,297.83L -124.54,335.44"/>
<path stroke="black" stroke-width="1" fill="none" d="M 51.83,260.22L 94.44,260.22"/>
<path stroke="black" stroke-width="1" fill="none" d="M 51.83,260.22L 51.83,297.83"/>
<path stroke="black" stroke-width="1" fill="none" d="M 51.83,297.83L 94.44,297.83"/>
<path stroke="black" stroke-width="1" fill="none" d="M 51.83,297.83L 51.83,335.44"/>
<path stroke="black" stroke-width="1" fill="none" d="M 51.83,335.44L -109.31,335.44"/>
<path stroke="black" stroke-width="1" fill="none" d="M 51.83,335.44L 51.83,373.06"/>
<path stroke="black" stroke-width="1" fill="none" d="M 758.54,-93.99L 758.54,-93.99"/>
<path stroke="black" stroke-width="1" fill="none" d="M 758.54,-93.99L 758.54,-18.77"/>
<path stroke="black" stroke-width="1" fill="none" d="M 758.54,-18.77L 758.54,-18.77"/>
<path stroke="black" stroke-width="1" fill="none" d="M 758.54,-18.77L 758.54,0.00"/>
<path stroke="black" stroke-width="1" fill="none" d="M 758.54,0.00L 758.54,0.00"/>
<path stroke="black" stroke-width="1" fill="none" d="M 758.54,0.00L 758.54,0.00"/>
<path stroke="black" stroke-width="1" fill="none" d="M 758.54,0.00L 758.54,0.00"/>
<path stroke="black" stroke-width="1" fill="none" d="M 758.54,0.00L 758.54,29.53"/>
<path stroke="black" stroke-width="1" fill="none" d="M 758.54,104.76L 966.30,104.76"/>
<path stroke="black" stroke-width="1" fill="none" d="M 758.54,104.76L 758.54,147.37"/>
<path stroke="black" stroke-width="1" fill="none" d="M 758.54,147.37L 966.30,147.37"/>
<path stroke="black" stroke-width="1" fill="none" d="M 758.54,147.37L 758.54,147.37"/>
<path stroke="black" stroke-width="1" fill="none" d="M 758.54,147.37L 758.54,147.37"/>
<path stroke="black" stroke-width="1" fill="none" d="M 758.54,147.37L 758.54,147.37"/>
<path stroke="black" stroke-width="1" fill="none" d="M 758.54,147.37L 758.54,147.37"/>
<path stroke="black" stroke-width="1" fill="none" d="M 758.54,147.37L 758.54,222.60"/>
<path stroke="black" stroke-width="1" fill="none" d="M 758.54,222.60L 966.30,222.60"/>
<path stroke="black" stroke-width="1" fill="none" d="M 758.54,222.60L 758.54,297.83"/>
<path stroke="black" stroke-width="1" fill="none" d="M 758.54,0.00L 1061.75,147.37"/>
<path stroke="black" stroke-width="1" fill="none" d="M 758.54,0.00L 758.54,0.00"/>
<path stroke="black" stroke-width="1" fill="none" d="M 758.54,0.00L 758.54,0.00"/>
<path stroke="black" stroke-width="1" fill="none" d="M 758.54,0.00L 758.54,42.15"/>
<path stroke="black" stroke-width="1" fill="none" d="M 966.30,104.76L 758.54,104.76"/>
<path stroke="black" stroke-width="1" fill="none" d="M 966.30,104.76L 966.30,147.37"/>
<path stroke="black" stroke-width="1" fill="none" d="M 966.30,222.60L 1008.91,222.60"/>
<path stroke="black" stroke-width="1" fill="none" d="M 966.30,222.60L 966.30,297.83"/>
<path stroke="black" stroke-width="1" fill="none" d="M 94.44,297.83L 758.54,147.37"/>
<path stroke="black" stroke-width="1" fill="none" d="M 758.54,147.37L 758.54,147.37"/>
<path stroke="black" stroke-width="1" fill="none" d="M 758.54,147.37L 1061.75,147.37"/>
<path stroke="black" stroke-width="1" fill="none" d="M 758.54,147.37L 758.54,147.37"/>
<path stroke="black" stroke-width="1" fill="none" d="M 758.54,147.37L 1238.58,11.23"/>
<path stroke="black" stroke-width="1" fill="none" d="M 758.54,147.37L 758.54,297.83"/>
<path stroke="black" stroke-width="1" fill="none" d="M 758.54,297.83L 758.54,0.00"/>
<path stroke="black" stroke-width="1" fill="none" d="M 758.54,0.00L 758.54,101.23"/>
<path stroke="black" stroke-width="1" fill="none" d="M 758.54,29.53L 758.54,-93.99"/>
<path stroke="black" stroke-width="1" fill="none" d="M 758.54,-93.99L 758.54,0.00"/>
<path stroke="black" stroke-width="1" fill="none" d="M 758.54,297.83L 758.54,0.00"/>
<path stroke="black" stroke-width="1" fill="none" d="M 758.54,0.00L 758.54,147.37"/>
<path stroke="black" stroke-width="1" fill="none" d="M 94.44,297.83L 758.54,147.37"/>
<path stroke="black" stroke-width="1" fill="none" d="M 758.54,147.37L 758.54,297.83"/>
<g>
<rect stroke="black" stroke-width="1" fill="gray" opacity="0.5" x="936.30" y="117.37" width="60.00" height="60.00"/>
<text font-family="sans-serif" x="953.30" y="152.37">
148
</text>
</g>
<g>
<rect stroke="black" stroke-width="1" fill="gray" opacity="0.5" x="1208.58" y="-18.77" width="60.00" height="60.00"/>
<text font-family="sans-serif" x="1225.58" y="16.23">
149
</text>
</g>
<g>
<rect stroke="black" stroke-width="1" fill="gray" opacity="0.5" x="-331.93" y="117.37" width="60.00" height="60.00"/>
<text font-family="sans-serif" x="-314.93" y="152.37">
150
</text>
</g>
<g>
<rect stroke="black" stroke-width="1" fill="gray" opacity="0.5" x="936.30" y="267.83" width="60.00" height="60.00"/>
<text font-family="sans-serif" x="953.30" y="302.83">
151
</text>
</g>
<g>
<rect stroke="black" stroke-width="1" fill="gray" opacity="0.5" x="978.91" y="192.60" width="60.00" height="60.00"/>
<text font-family="sans-serif" x="995.91" y="227.60">
152
</text>
</g>
<g>
<rect stroke="black" stroke-width="1" fill="gray" opacity="0.5" x="-331.93" y="343.06" width="60.00" height="60.00"/>
<text font-family="sans-serif" x="-314.93" y="378.06">
153
</text>
</g>
<g>
<rect stroke="black" stroke-width="1" fill="gray" opacity="0.5" x="-271.93" y="267.83" width="60.00" height="60.00"/>
<text font-family="sans-serif" x="-254.93" y="302.83">
154
</text>
</g>
<g>
<rect stroke="black" stroke-width="1" fill="gray" opacity="0.5" x="64.44" y="267.83" width="60.00" height="60.00"/>
<text font-family="sans-serif" x="81.44" y="302.83">
155
</text>
</g>
<g>
<rect stroke="black" stroke-width="1" fill="gray" opacity="0.5" x="728.54" y="-136.61" width="60.00" height="60.00"/>
<text font-family="sans-serif" x="745.54" y="-101.61">
156
</text>
</g>
<g>
<rect stroke="black" stroke-width="1" fill="gray" opacity="0.5" x="-374.54" y="267.83" width="60.00" height="60.00"/>
<text font-family="sans-serif" x="-357.54" y="302.83">
157
</text>
</g>
<g>
<rect stroke="black" stroke-width="1" fill="gray" opacity="0.5" x="728.54" y="-0.47" width="60.00" height="60.00"/>
<text font-family="sans-serif" x="745.54" y="34.53">
158
</text>
</g>
<g>
<rect stroke="black" stroke-width="1" fill="gray" opacity="0.5" x="21.83" y="343.06" width="60.00" height="60.00"/>
<text font-family="sans-serif" x="38.83" y="378.06">
159
</text>
</g>
<g>
<rect stroke="black" stroke-width="1" fill="gray" opacity="0.5" x="-38.17" y="192.60" width="60.00" height="60.00"/>
<text font-family="sans-serif" x="-21.17" y="227.60">
160
</text>
</g>
<g>
<rect stroke="black" stroke-width="1" fill="gray" opacity="0.5" x="-374.54" y="192.60" width="60.00" height="60.00"/>
<text font-family="sans-serif" x="-357.54" y="227.60">
161
</text>
</g>
<g>
<rect stroke="black" stroke-width="1" fill="gray" opacity="0.5" x="21.83" y="192.60" width="60.00" height="60.00"/>
<text font-family="sans-serif" x="38.83" y="227.60">
162
</text>
</g>
<g>
<rect stroke="black" stroke-width="1" fill="gray" opacity="0.5" x="1031.75" y="117.37" width="60.00" height="60.00"/>
<text font-family="sans-serif" x="1048.75" y="152.37">
163
</text>
</g>
<g>
<rect stroke="black" stroke-width="1" fill="gray" opacity="0.5" x="-234.31" y="387.16" width="60.00" height="60.00"/>
<text font-family="sans-serif" x="-217.31" y="422.16">
164
</text>
</g>
<g>
<rect stroke="black" stroke-width="1" fill="gray" opacity="0.5" x="898.68" y="74.76" width="60.00" height="60.00"/>
<text font-family="sans-serif" x="915.68" y="109.76">
165
</text>
</g>
<g>
<rect stroke="black" stroke-width="1" fill="gray" opacity="0.5" x="728.54" y="267.83" width="60.00" height="60.00"/>
<text font-family="sans-serif" x="745.54" y="302.83">
166
</text>
</g>
<g>
<rect stroke="black" stroke-width="1" fill="gray" opacity="0.5" x="21.83" y="56.46" width="60.00" height="60.00"/>
<text font-family="sans-serif" x="38.83" y="91.46">
167
</text>
</g>
<g>
<rect stroke="black" stroke-width="1" fill="gray" opacity="0.5" x="1208.58" y="117.37" width="60.00" height="60.00"/>
<text font-family="sans-serif" x="1225.58" y="152.37">
168
</text>
</g>
<g>
<rect stroke="black" stroke-width="1" fill="gray" opacity="0.5" x="-139.31" y="418.29" width="60.00" height="60.00"/>
<text font-family="sans-serif" x="-122.31" y="453.29">
169
</text>
</g>
<g>
<rect stroke="black" stroke-width="1" fill="gray" opacity="0.5" x="728.54" y="-18.77" width="60.00" height="240.00"/>
<text font-family="sans-serif" x="745.54" y="106.23">
170
</text>
</g>
<g>
<rect stroke="black" stroke-width="1" fill="gray" opacity="0.5" x="-174.31" y="-79.22" width="60.00" height="120.00"/>
<text font-family="sans-serif" x="-157.31" y="-14.22">
171
</text>
</g>
<g>
<rect stroke="black" stroke-width="1" fill="gray" opacity="0.5" x="983.33" y="385.67" width="60.00" height="120.00"/>
<text font-family="sans-serif" x="1000.33" y="450.67">
172
</text>
</g>
<g>
<rect stroke="black" stroke-width="1" fill="gray" opacity="0.5" x="-113.02" y="-153.99" width="60.00" height="120.00"/>
<text font-family="sans-serif" x="-96.02" y="-88.99">
173
</text>
</g>
<g>
<rect stroke="black" stroke-width="1" fill="gray" opacity="0.5" x="919.37" y="-153.99" width="240.00" height="120.00"/>
<text font-family="sans-serif" x="1026.37" y="-88.99">
174
</text>
</g>
<g>
<rect stroke="black" stroke-width="1" fill="gray" opacity="0.5" x="728.54" y="-17.85" width="60.00" height="120.00"/>
<text font-family="sans-serif" x="745.54" y="47.15">
175
</text>
</g>
<g>
<rect stroke="black" stroke-width="1" fill="gray" opacity="0.5" x="-211.93" y="290.22" width="15.23" height="15.23"/>
<text font-family="sans-serif" x="-217.31" y="302.83">
176
</text>
</g>
<g>
<rect stroke="black" stroke-width="1" fill="gray" opacity="0.5" x="750.93" y="-161.61" width="15.23" height="15.23"/>
<text font-family="sans-serif" x="745.54" y="-148.99">
177
</text>
</g>
<g>
<rect stroke="black" stroke-width="1" fill="gray" opacity="0.5" x="750.93" y="-161.61" width="15.23" height="15.23"/>
<text font-family="sans-serif" x="745.54" y="-148.99">
178
</text>
</g>
<g>
<rect stroke="black" stroke-width="1" fill="gray" opacity="0.5" x="750.93" y="290.22" width="15.23" height="15.23"/>
<text font-family="sans-serif" x="745.54" y="302.83">
179
</text>
</g>
<g>
<rect stroke="black" stroke-width="1" fill="gray" opacity="0.5" x="1001.30" y="139.76" width="15.23" height="15.23"/>
<text font-family="sans-serif" x="995.91" y="152.37">
180
</text>
</g>
<g>
<rect stroke="black" stroke-width="1" fill="gray" opacity="0.5" x="-309.54" y="21.92" width="15.23" height="15.23"/>
<text font-family="sans-serif" x="-314.93" y="34.53">
181
</text>
</g>
<g>
<rect stroke="black" stroke-width="1" fill="gray" opacity="0.5" x="750.93" y="78.85" width="15.23" height="15.23"/>
<text font-family="sans-serif" x="745.54" y="91.46">
182
</text>
</g>
<g>
<rect stroke="black" stroke-width="1" fill="gray" opacity="0.5" x="750.93" y="252.60" width="15.23" height="15.23"/>
<text font-family="sans-serif" x="745.54" y="265.22">
183
</text>
</g>
<g>
<rect stroke="black" stroke-width="1" fill="gray" opacity="0.5" x="86.83" y="252.60" width="15.23" height="15.23"/>
<text font-family="sans-serif" x="81.44" y="265.22">
184
</text>
</g>
<g>
<rect stroke="black" stroke-width="1" fill="gray" opacity="0.5" x="958.68" y="3.62" width="15.23" height="15.23"/>
<text font-family="sans-serif" x="953.30" y="16.23">
185
</text>
</g>
<g>
<rect stroke="black" stroke-width="1" fill="gray" opacity="0.5" x="-62.55" y="214.99" width="15.23" height="15.23"/>
<text font-family="sans-serif" x="-67.94" y="227.60">
186
</text>
</g>
<g>
<rect stroke="black" stroke-width="1" fill="gray" opacity="0.5" x="-62.55" y="290.22" width="15.23" height="15.23"/>
<text font-family="sans-serif" x="-67.94" y="302.83">
187
</text>
</g>
<g>
<rect stroke="black" stroke-width="1" fill="gray" opacity="0.5" x="-249.54" y="365.44" width="15.23" height="15.23"/>
<text font-family="sans-serif" x="-254.93" y="378.06">
188
</text>
</g>
<g>
<rect stroke="black" stroke-width="1" fill="gray" opacity="0.5" x="-389.77" y="214.99" width="15.23" height="15.23"/>
<text font-family="sans-serif" x="-395.16" y="227.60">
189
</text>
</g>
<g>
<rect stroke="black" stroke-width="1" fill="gray" opacity="0.5" x="-389.77" y="395.44" width="15.23" height="15.23"/>
<text font-family="sans-serif" x="-395.16" y="408.06">
190
</text>
</g>
<g>
<rect stroke="black" stroke-width="1" fill="gray" opacity="0.5" x="-268.86" y="395.44" width="15.23" height="15.23"/>
<text font-family="sans-serif" x="-274.24" y="408.06">
191
</text>
</g>
<g>
<rect stroke="black" stroke-width="1" fill="gray" opacity="0.5" x="-268.86" y="365.44" width="15.23" height="15.23"/>
<text font-family="sans-serif" x="-274.24" y="378.06">
192
</text>
</g>
<g>
<rect stroke="black" stroke-width="1" fill="gray" opacity="0.5" x="-309.54" y="290.22" width="15.23" height="15.23"/>
<text font-family="sans-serif" x="-314.93" y="302.83">
193
</text>
</g>
<g>
<rect stroke="black" stroke-width="1" fill="gray" opacity="0.5" x="750.93" y="97.15" width="15.23" height="15.23"/>
<text font-family="sans-serif" x="745.54" y="109.76">
194
</text>
</g>
<g>
<rect stroke="black" stroke-width="1" fill="gray" opacity="0.5" x="750.93" y="290.22" width="15.23" height="15.23"/>
<text font-family="sans-serif" x="745.54" y="302.83">
195
</text>
</g>
<g>
<rect stroke="black" stroke-width="1" fill="gray" opacity="0.5" x="-116.93" y="327.83" width="15.23" height="15.23"/>
<text font-family="sans-serif" x="-122.31" y="340.44">
196
</text>
</g>
<g>
<rect stroke="black" stroke-width="1" fill="gray" opacity="0.5" x="-132.16" y="327.83" width="15.23" height="15.23"/>
<text font-family="sans-serif" x="-137.54" y="340.44">
197
</text>
</g>
<g>
<rect stroke="black" stroke-width="1" fill="gray" opacity="0.5" x="-132.16" y="286.22" width="15.23" height="15.23"/>
<text font-family="sans-serif" x="-137.54" y="298.83">
198
</text>
</g>
<g>
<rect stroke="black" stroke-width="1" fill="gray" opacity="0.5" x="750.93" y="286.22" width="15.23" height="15.23"/>
<text font-family="sans-serif" x="745.54" y="298.83">
199
</text>
</g>
<g>
<rect stroke="black" stroke-width="1" fill="gray" opacity="0.5" x="750.93" y="48.85" width="15.23" height="15.23"/>
<text font-family="sans-serif" x="745.54" y="61.46">
200
</text>
</g>
<g>
<rect stroke="black" stroke-width="1" fill="gray" opacity="0.5" x="921.07" y="48.85" width="15.23" height="15.23"/>
<text font-family="sans-serif" x="915.68" y="61.46">
201
</text>
</g>
<g>
<rect stroke="black" stroke-width="1" fill="gray" opacity="0.5" x="958.68" y="409.55" width="15.23" height="15.23"/>
<text font-family="sans-serif" x="953.30" y="422.16">
202
</text>
</g>
<g>
<rect stroke="black" stroke-width="1" fill="gray" opacity="0.5" x="-116.93" y="365.44" width="15.23" height="15.23"/>
<text font-family="sans-serif" x="-122.31" y="378.06">
203
</text>
</g>
<g>
<rect stroke="black" stroke-width="1" fill="gray" opacity="0.5" x="86.83" y="214.99" width="15.23" height="15.23"/>
<text font-family="sans-serif" x="81.44" y="227.60">
204
</text>
</g>
<g>
<rect stroke="black" stroke-width="1" fill="gray" opacity="0.5" x="44.21" y="139.76" width="15.23" height="15.23"/>
<text font-family="sans-serif" x="38.83" y="152.37">
205
</text>
</g>
<g>
<rect stroke="black" stroke-width="1" fill="gray" opacity="0.5" x="-79.31" y="440.67" width="15.23" height="15.23"/>
<text font-family="sans-serif" x="-84.70" y="453.29">
206
</text>
</g>
<g>
<rect stroke="black" stroke-width="1" fill="gray" opacity="0.5" x="-79.31" y="290.22" width="15.23" height="15.23"/>
<text font-family="sans-serif" x="-84.70" y="302.83">
207
</text>
</g>
<g>
<rect stroke="black" stroke-width="1" fill="gray" opacity="0.5" x="750.93" y="-26.38" width="15.23" height="15.23"/>
<text font-family="sans-serif" x="745.54" y="-13.77">
208
</text>
</g>
<g>
<rect stroke="black" stroke-width="1" fill="gray" opacity="0.5" x="1016.53" y="-26.38" width="15.23" height="15.23"/>
<text font-family="sans-serif" x="1011.14" y="-13.77">
209
</text>
</g>
<g>
<rect stroke="black" stroke-width="1" fill="gray" opacity="0.5" x="1016.53" y="-7.61" width="15.23" height="15.23"/>
<text font-family="sans-serif" x="1011.14" y="5.00">
210
</text>
</g>
<g>
<rect stroke="black" stroke-width="1" fill="gray" opacity="0.5" x="-151.93" y="-7.61" width="15.23" height="15.23"/>
<text font-family="sans-serif" x="-157.31" y="5.00">
211
</text>
</g>
<g>
<rect stroke="black" stroke-width="1" fill="gray" opacity="0.5" x="-224.54" y="438.06" width="15.23" height="15.23"/>
<text font-family="sans-serif" x="-229.93" y="450.67">
212
</text>
</g>
<g>
<rect stroke="black" stroke-width="1" fill="gray" opacity="0.5" x="-224.54" y="-7.61" width="15.23" height="15.23"/>
<text font-family="sans-serif" x="-229.93" y="5.00">
213
</text>
</g>
<g>
<rect stroke="black" stroke-width="1" fill="gray" opacity="0.5" x="-213.18" y="-101.61" width="15.23" height="15.23"/>
<text font-family="sans-serif" x="-218.57" y="-88.99">
214
</text>
</g>
<g>
<rect stroke="black" stroke-width="1" fill="gray" opacity="0.5" x="1031.75" y="-26.38" width="15.23" height="15.23"/>
<text font-family="sans-serif" x="1026.37" y="-13.77">
215
</text>
</g>
<g>
<rect stroke="black" stroke-width="1" fill="gray" opacity="0.5" x="750.93" y="-26.38" width="15.23" height="15.23"/>
<text font-family="sans-serif" x="745.54" y="-13.77">
216
</text>
</g>
<g>
<rect stroke="black" stroke-width="1" fill="gray" opacity="0.5" x="750.93" y="139.76" width="15.23" height="15.23"/>
<text font-family="sans-serif" x="745.54" y="152.37">
217
</text>
</g>
<g>
<rect stroke="black" stroke-width="1" fill="gray" opacity="0.5" x="750.93" y="139.76" width="15.23" height="15.23"/>
<text font-family="sans-serif" x="745.54" y="152.37">
218
</text>
</g>
<g>
<rect stroke="black" stroke-width="1" fill="gray" opacity="0.5" x="750.93" y="139.76" width="15.23" height="15.23"/>
<text font-family="sans-serif" x="745.54" y="152.37">
219
</text>
</g>
<g>
<rect stroke="black" stroke-width="1" fill="gray" opacity="0.5" x="750.93" y="139.76" width="15.23" height="15.23"/>
<text font-family="sans-serif" x="745.54" y="152.37">
220
</text>
</g>
<g>
<rect stroke="black" stroke-width="1" fill="gray" opacity="0.5" x="750.93" y="139.76" width="15.23" height="15.23"/>
<text font-family="sans-serif" x="745.54" y="152.37">
221
</text>
</g>
<g>
<rect stroke="black" stroke-width="1" fill="gray" opacity="0.5" x="750.93" y="139.76" width="15.23" height="15.23"/>
<text font-family="sans-serif" x="745.54" y="152.37">
222
</text>
</g>
<g>
<rect stroke="black" stroke-width="1" fill="gray" opacity="0.5" x="-132.16" y="290.22" width="15.23" height="15.23"/>
<text font-family="sans-serif" x="-137.54" y="302.83">
223
</text>
</g>
<g>
<rect stroke="black" stroke-width="1" fill="gray" opacity="0.5" x="44.21" y="252.60" width="15.23" height="15.23"/>
<text font-family="sans-serif" x="38.83" y="265.22">
224
</text>
</g>
<g>
<rect stroke="black" stroke-width="1" fill="gray" opacity="0.5" x="44.21" y="290.22" width="15.23" height="15.23"/>
<text font-family="sans-serif" x="38.83" y="302.83">
225
</text>
</g>
<g>
<rect stroke="black" stroke-width="1" fill="gray" opacity="0.5" x="44.21" y="327.83" width="15.23" height="15.23"/>
<text font-family="sans-serif" x="38.83" y="340.44">
226
</text>
</g>
<g>
<rect stroke="black" stroke-width="1" fill="gray" opacity="0.5" x="750.93" y="-101.61" width="15.23" height="15.23"/>
<text font-family="sans-serif" x="745.54" y="-88.99">
227
</text>
</g>
<g>
<rect stroke="black" stroke-width="1" fill="gray" opacity="0.5" x="750.93" y="-26.38" width="15.23" height="15.23"/>
<text font-family="sans-serif" x="745.54" y="-13.77">
228
</text>
</g>
<g>
<rect stroke="black" stroke-width="1" fill="gray" opacity="0.5" x="750.93" y="-7.61" width="15.23" height="15.23"/>
<text font-family="sans-serif" x="745.54" y="5.00">
229
</text>
</g>
<g>
<rect stroke="black" stroke-width="1" fill="gray" opacity="0.5" x="750.93" y="-7.61" width="15.23" height="15.23"/>
<text font-family="sans-serif" x="745.54" y="5.00">
230
</text>
</g>
<g>
<rect stroke="black" stroke-width="1" fill="gray" opacity="0.5" x="750.93" y="97.15" width="15.23" height="15.23"/>
<text font-family="sans-serif" x="745.54" y="109.76">
231
</text>
</g>
<g>
<rect stroke="black" stroke-width="1" fill="gray" opacity="0.5" x="750.93" y="139.76" width="15.23" height="15.23"/>
<text font-family="sans-serif" x="745.54" y="152.37">
232
</text>
</g>
<g>
<rect stroke="black" stroke-width="1" fill="gray" opacity="0.5" x="750.93" y="139.76" width="15.23" height="15.23"/>
<text font-family="sans-serif" x="745.54" y="152.37">
233
</text>
</g>
<g>
<rect stroke="black" stroke-width="1" fill="gray" opacity="0.5" x="750.93" y="139.76" width="15.23" height="15.23"/>
<text font-family="sans-serif" x="745.54" y="152.37">
234
</text>
</g>
<g>
<rect stroke="black" stroke-width="1" fill="gray" opacity="0.5" x="750.93" y="214.99" width="15.23" height="15.23"/>
<text font-family="sans-serif" x="745.54" y="227.60">
235
</text>
</g>
<g>
<rect stroke="black" stroke-width="1" fill="gray" opacity="0.5" x="750.93" y="-7.61" width="15.23" height="15.23"/>
<text font-family="sans-serif" x="745.54" y="5.00">
236
</text>
</g>
<g>
<rect stroke="black" stroke-width="1" fill="gray" opacity="0.5" x="750.93" y="-7.61" width="15.23" height="15.23"/>
<text font-family="sans-serif" x="745.54" y="5.00">
237
</text>
</g>
<g>
<rect stroke="black" stroke-width="1" fill="gray" opacity="0.5" x="958.68" y="97.15" width="15.23" height="15.23"/>
<text font-family="sans-serif" x="953.30" y="109.76">
238
</text>
</g>
<g>
<rect stroke="black" stroke-width="1" fill="gray" opacity="0.5" x="958.68" y="214.99" width="15.23" height="15.23"/>
<text font-family="sans-serif" x="953.30" y="227.60">
239
</text>
</g>
<g>
<rect stroke="black" stroke-width="1" fill="gray" opacity="0.5" x="750.93" y="139.76" width="15.23" height="15.23"/>
<text font-family="sans-serif" x="745.54" y="152.37">
240
</text>
</g>
<g>
<rect stroke="black" stroke-width="1" fill="gray" opacity="0.5" x="750.93" y="139.76" width="15.23" height="15.23"/>
<text font-family="sans-serif" x="745.54" y="152.37">
241
</text>
</g>
<g>
<rect stroke="black" stroke-width="1" fill="gray" opacity="0.5" x="750.93" y="139.76" width="15.23" height="15.23"/>
<text font-family="sans-serif" x="745.54" y="152.37">
242
</text>
</g>
<g>
<rect stroke="black" stroke-width="1" fill="gray" opacity="0.5" x="750.93" y="-7.61" width="15.23" height="15.23"/>
<text font-family="sans-serif" x="745.54" y="5.00">
243
</text>
</g>
<g>
<rect stroke="black" stroke-width="1" fill="gray" opacity="0.5" x="750.93" y="-101.61" width="15.23" height="15.23"/>
<text font-family="sans-serif" x="745.54" y="-88.99">
244
</text>
</g>
<g>
<rect stroke="black" stroke-width="1" fill="gray" opacity="0.5" x="750.93" y="-7.61" width="15.23" height="15.23"/>
<text font-family="sans-serif" x="745.54" y="5.00">
245
</text>
</g>
<g>
<rect stroke="black" stroke-width="1" fill="gray" opacity="0.5" x="750.93" y="139.76" width="15.23" height="15.23"/>
<text font-family="sans-serif" x="745.54" y="152.37">
246
</text>
</g>
<g>
<rect stroke="black" stroke-width="1" fill="gray" opacity="0.5" x="767.16" y="-158.99" width="13.23" height="10.00"/>
<text font-family="sans-serif" x="760.77" y="-148.99">
320
</text>
</g>
<g>
<rect stroke="black" stroke-width="1" fill="gray" opacity="0.5" x="-196.95" y="-98.99" width="82.93" height="10.00"/>
<text font-family="sans-serif" x="-168.49" y="-88.99">
321
</text>
</g>
<g>
<rect stroke="black" stroke-width="1" fill="gray" opacity="0.5" x="767.16" y="-23.77" width="248.37" height="10.00"/>
<text font-family="sans-serif" x="878.34" y="-13.77">
322
</text>
</g>
<g>
<rect stroke="black" stroke-width="1" fill="gray" opacity="0.5" x="767.16" y="-23.77" width="263.60" height="10.00"/>
<text font-family="sans-serif" x="885.96" y="-13.77">
323
</text>
</g>
<g>
<rect stroke="black" stroke-width="1" fill="gray" opacity="0.5" x="767.16" y="-23.77" width="263.60" height="10.00"/>
<text font-family="sans-serif" x="885.96" y="-13.77">
324
</text>
</g>
<g>
<rect stroke="black" stroke-width="1" fill="gray" opacity="0.5" x="-208.31" y="-5.00" width="958.25" height="10.00"/>
<text font-family="sans-serif" x="257.81" y="5.00">
325
</text>
</g>
<g>
<rect stroke="black" stroke-width="1" fill="gray" opacity="0.5" x="789.54" y="149.53" width="418.03" height="10.00"/>
<text font-family="sans-serif" x="985.56" y="159.53">
326
</text>
</g>
<g>
<rect stroke="black" stroke-width="1" fill="gray" opacity="0.5" x="-270.93" y="142.37" width="1020.86" height="10.00"/>
<text font-family="sans-serif" x="226.50" y="152.37">
327
</text>
</g>
<g>
<rect stroke="black" stroke-width="1" fill="gray" opacity="0.5" x="-270.93" y="142.37" width="1020.86" height="10.00"/>
<text font-family="sans-serif" x="226.50" y="152.37">
328
</text>
</g>
<g>
<rect stroke="black" stroke-width="1" fill="gray" opacity="0.5" x="125.44" y="217.60" width="905.32" height="10.00"/>
<text font-family="sans-serif" x="565.10" y="227.60">
329
</text>
</g>
<g>
<rect stroke="black" stroke-width="1" fill="gray" opacity="0.5" x="-135.70" y="-5.00" width="885.63" height="10.00"/>
<text font-family="sans-serif" x="294.11" y="5.00">
330
</text>
</g>
<g>
<rect stroke="black" stroke-width="1" fill="gray" opacity="0.5" x="-135.70" y="-5.00" width="1151.23" height="10.00"/>
<text font-family="sans-serif" x="426.91" y="5.00">
331
</text>
</g>
<g>
<rect stroke="black" stroke-width="1" fill="gray" opacity="0.5" x="974.91" y="6.23" width="232.67" height="10.00"/>
<text font-family="sans-serif" x="1078.25" y="16.23">
332
</text>
</g>
<g>
<rect stroke="black" stroke-width="1" fill="gray" opacity="0.5" x="-293.31" y="24.53" width="1020.86" height="10.00"/>
<text font-family="sans-serif" x="204.11" y="34.53">
333
</text>
</g>
<g>
<rect stroke="black" stroke-width="1" fill="gray" opacity="0.5" x="767.16" y="51.46" width="152.91" height="10.00"/>
<text font-family="sans-serif" x="830.61" y="61.46">
334
</text>
</g>
<g>
<rect stroke="black" stroke-width="1" fill="gray" opacity="0.5" x="82.83" y="81.46" width="667.10" height="10.00"/>
<text font-family="sans-serif" x="403.38" y="91.46">
335
</text>
</g>
<g>
<rect stroke="black" stroke-width="1" fill="gray" opacity="0.5" x="767.16" y="99.76" width="130.53" height="10.00"/>
<text font-family="sans-serif" x="819.42" y="109.76">
336
</text>
</g>
<g>
<rect stroke="black" stroke-width="1" fill="gray" opacity="0.5" x="-270.93" y="142.37" width="1020.86" height="10.00"/>
<text font-family="sans-serif" x="226.50" y="152.37">
337
</text>
</g>
<g>
<rect stroke="black" stroke-width="1" fill="gray" opacity="0.5" x="60.44" y="142.37" width="689.49" height="10.00"/>
<text font-family="sans-serif" x="392.18" y="152.37">
338
</text>
</g>
<g>
<rect stroke="black" stroke-width="1" fill="gray" opacity="0.5" x="997.30" y="142.37" width="3.00" height="10.00"/>
<text font-family="sans-serif" x="985.80" y="152.37">
339
</text>
</g>
<g>
<rect stroke="black" stroke-width="1" fill="gray" opacity="0.5" x="767.16" y="142.37" width="233.14" height="10.00"/>
<text font-family="sans-serif" x="870.73" y="152.37">
340
</text>
</g>
<g>
<rect stroke="black" stroke-width="1" fill="gray" opacity="0.5" x="1092.75" y="142.37" width="114.82" height="10.00"/>
<text font-family="sans-serif" x="1137.17" y="152.37">
341
</text>
</g>
<g>
<rect stroke="black" stroke-width="1" fill="gray" opacity="0.5" x="82.83" y="217.60" width="3.00" height="10.00"/>
<text font-family="sans-serif" x="71.33" y="227.60">
343
</text>
</g>
<g>
<rect stroke="black" stroke-width="1" fill="gray" opacity="0.5" x="-46.32" y="217.60" width="132.15" height="10.00"/>
<text font-family="sans-serif" x="6.75" y="227.60">
344
</text>
</g>
<g>
<rect stroke="black" stroke-width="1" fill="gray" opacity="0.5" x="-46.32" y="217.60" width="7.15" height="10.00"/>
<text font-family="sans-serif" x="-55.75" y="227.60">
345
</text>
</g>
<g>
<rect stroke="black" stroke-width="1" fill="gray" opacity="0.5" x="22.83" y="217.60" width="727.10" height="10.00"/>
<text font-family="sans-serif" x="373.38" y="227.60">
346
</text>
</g>
<g>
<rect stroke="black" stroke-width="1" fill="gray" opacity="0.5" x="60.44" y="255.22" width="689.49" height="10.00"/>
<text font-family="sans-serif" x="392.18" y="265.22">
347
</text>
</g>
<g>
<rect stroke="black" stroke-width="1" fill="gray" opacity="0.5" x="-115.93" y="288.83" width="865.86" height="10.00"/>
<text font-family="sans-serif" x="304.00" y="298.83">
348
</text>
</g>
<g>
<rect stroke="black" stroke-width="1" fill="gray" opacity="0.5" x="-313.54" y="292.83" width="3.00" height="10.00"/>
<text font-family="sans-serif" x="-325.04" y="302.83">
349
</text>
</g>
<g>
<rect stroke="black" stroke-width="1" fill="gray" opacity="0.5" x="-210.93" y="292.83" width="77.77" height="10.00"/>
<text font-family="sans-serif" x="-185.04" y="302.83">
350
</text>
</g>
<g>
<rect stroke="black" stroke-width="1" fill="gray" opacity="0.5" x="-63.09" y="292.83" width="126.53" height="10.00"/>
<text font-family="sans-serif" x="-12.82" y="302.83">
351
</text>
</g>
<g>
<rect stroke="black" stroke-width="1" fill="gray" opacity="0.5" x="-46.32" y="292.83" width="773.87" height="10.00"/>
<text font-family="sans-serif" x="327.61" y="302.83">
353
</text>
</g>
<g>
<rect stroke="black" stroke-width="1" fill="gray" opacity="0.5" x="-195.70" y="292.83" width="923.25" height="10.00"/>
<text font-family="sans-serif" x="252.92" y="302.83">
354
</text>
</g>
<g>
<rect stroke="black" stroke-width="1" fill="gray" opacity="0.5" x="-195.70" y="292.83" width="1131.00" height="10.00"/>
<text font-family="sans-serif" x="356.80" y="302.83">
355
</text>
</g>
<g>
<rect stroke="black" stroke-width="1" fill="gray" opacity="0.5" x="767.16" y="292.83" width="168.14" height="10.00"/>
<text font-family="sans-serif" x="838.23" y="302.83">
356
</text>
</g>
<g>
<rect stroke="black" stroke-width="1" fill="gray" opacity="0.5" x="767.16" y="292.83" width="13.23" height="10.00"/>
<text font-family="sans-serif" x="760.77" y="302.83">
357
</text>
</g>
<g>
<rect stroke="black" stroke-width="1" fill="gray" opacity="0.5" x="-115.93" y="330.44" width="159.14" height="10.00"/>
<text font-family="sans-serif" x="-49.36" y="340.44">
358
</text>
</g>
<g>
<rect stroke="black" stroke-width="1" fill="gray" opacity="0.5" x="-270.93" y="368.06" width="1.07" height="10.00"/>
<text font-family="sans-serif" x="-283.39" y="378.06">
359
</text>
</g>
<g>
<rect stroke="black" stroke-width="1" fill="gray" opacity="0.5" x="-252.63" y="368.06" width="2.09" height="10.00"/>
<text font-family="sans-serif" x="-264.59" y="378.06">
360
</text>
</g>
<g>
<rect stroke="black" stroke-width="1" fill="gray" opacity="0.5" x="-233.31" y="368.06" width="254.14" height="10.00"/>
<text font-family="sans-serif" x="-119.24" y="378.06">
361
</text>
</g>
<g>
<rect stroke="black" stroke-width="1" fill="gray" opacity="0.5" x="-100.70" y="368.06" width="121.53" height="10.00"/>
<text font-family="sans-serif" x="-52.94" y="378.06">
362
</text>
</g>
<g>
<rect stroke="black" stroke-width="1" fill="gray" opacity="0.5" x="-373.54" y="398.06" width="103.68" height="10.00"/>
<text font-family="sans-serif" x="-334.70" y="408.06">
363
</text>
</g>
<g>
<rect stroke="black" stroke-width="1" fill="gray" opacity="0.5" x="-173.31" y="412.16" width="1131.00" height="10.00"/>
<text font-family="sans-serif" x="379.18" y="422.16">
364
</text>
</g>
<g>
<rect stroke="black" stroke-width="1" fill="gray" opacity="0.5" x="-208.31" y="440.67" width="1190.64" height="10.00"/>
<text font-family="sans-serif" x="374.01" y="450.67">
365
</text>
</g>
<g>
<rect stroke="black" stroke-width="1" fill="gray" opacity="0.5" x="-196.95" y="-98.99" width="946.88" height="10.00"/>
<text font-family="sans-serif" x="263.49" y="-88.99">
367
</text>
</g>
<g>
<rect stroke="black" stroke-width="1" fill="gray" opacity="0.5" x="767.16" y="142.37" width="13.23" height="10.00"/>
<text font-family="sans-serif" x="760.77" y="152.37">
368
</text>
</g>
<g>
<rect stroke="black" stroke-width="1" fill="gray" opacity="0.5" x="767.16" y="142.37" width="13.23" height="10.00"/>
<text font-family="sans-serif" x="760.77" y="152.37">
369
</text>
</g>
<g>
<rect stroke="black" stroke-width="1" fill="gray" opacity="0.5" x="767.16" y="142.37" width="13.23" height="10.00"/>
<text font-family="sans-serif" x="760.77" y="152.37">
370
</text>
</g>
<g>
<rect stroke="black" stroke-width="1" fill="gray" opacity="0.5" x="60.44" y="142.37" width="689.49" height="10.00"/>
<text font-family="sans-serif" x="392.18" y="152.37">
371
</text>
</g>
<g>
<rect stroke="black" stroke-width="1" fill="gray" opacity="0.5" x="-115.93" y="292.83" width="159.14" height="10.00"/>
<text font-family="sans-serif" x="-49.36" y="302.83">
372
</text>
</g>
<g>
<rect stroke="black" stroke-width="1" fill="gray" opacity="0.5" x="60.44" y="255.22" width="25.39" height="10.00"/>
<text font-family="sans-serif" x="60.13" y="265.22">
373
</text>
</g>
<g>
<rect stroke="black" stroke-width="1" fill="gray" opacity="0.5" x="60.44" y="292.83" width="3.00" height="10.00"/>
<text font-family="sans-serif" x="48.94" y="302.83">
374
</text>
</g>
<g>
<rect stroke="black" stroke-width="1" fill="gray" opacity="0.5" x="-100.70" y="330.44" width="143.91" height="10.00"/>
<text font-family="sans-serif" x="-41.74" y="340.44">
375
</text>
</g>
<g>
<rect stroke="black" stroke-width="1" fill="gray" opacity="0.5" x="767.16" y="-23.77" width="13.23" height="10.00"/>
<text font-family="sans-serif" x="760.77" y="-13.77">
376
</text>
</g>
<g>
<rect stroke="black" stroke-width="1" fill="gray" opacity="0.5" x="767.16" y="-5.00" width="13.23" height="10.00"/>
<text font-family="sans-serif" x="760.77" y="5.00">
377
</text>
</g>
<g>
<rect stroke="black" stroke-width="1" fill="gray" opacity="0.5" x="767.16" y="99.76" width="190.53" height="10.00"/>
<text font-family="sans-serif" x="849.42" y="109.76">
378
</text>
</g>
<g>
<rect stroke="black" stroke-width="1" fill="gray" opacity="0.5" x="767.16" y="142.37" width="168.14" height="10.00"/>
<text font-family="sans-serif" x="838.23" y="152.37">
379
</text>
</g>
<g>
<rect stroke="black" stroke-width="1" fill="gray" opacity="0.5" x="767.16" y="142.37" width="13.23" height="10.00"/>
<text font-family="sans-serif" x="760.77" y="152.37">
380
</text>
</g>
<g>
<rect stroke="black" stroke-width="1" fill="gray" opacity="0.5" x="767.16" y="217.60" width="190.53" height="10.00"/>
<text font-family="sans-serif" x="849.42" y="227.60">
381
</text>
</g>
<g>
<rect stroke="black" stroke-width="1" fill="gray" opacity="0.5" x="767.16" y="68.69" width="263.60" height="10.00"/>
<text font-family="sans-serif" x="885.96" y="78.69">
382
</text>
</g>
<g>
<rect stroke="black" stroke-width="1" fill="gray" opacity="0.5" x="767.16" y="99.76" width="190.53" height="10.00"/>
<text font-family="sans-serif" x="849.42" y="109.76">
383
</text>
</g>
<g>
<rect stroke="black" stroke-width="1" fill="gray" opacity="0.5" x="974.91" y="217.60" width="3.00" height="10.00"/>
<text font-family="sans-serif" x="963.41" y="227.60">
384
</text>
</g>
<g>
<rect stroke="black" stroke-width="1" fill="gray" opacity="0.5" x="125.44" y="217.60" width="624.49" height="10.00"/>
<text font-family="sans-serif" x="424.68" y="227.60">
385
</text>
</g>
<g>
<rect stroke="black" stroke-width="1" fill="gray" opacity="0.5" x="767.16" y="142.37" width="263.60" height="10.00"/>
<text font-family="sans-serif" x="885.96" y="152.37">
386
</text>
</g>
<g>
<rect stroke="black" stroke-width="1" fill="gray" opacity="0.5" x="767.16" y="74.30" width="440.42" height="10.00"/>
<text font-family="sans-serif" x="974.37" y="84.30">
387
</text>
</g>
<g>
<rect stroke="black" stroke-width="1" fill="gray" opacity="0.5" x="767.16" y="143.91" width="35.61" height="10.00"/>
<text font-family="sans-serif" x="771.97" y="153.91">
388
</text>
</g>
<g>
<rect stroke="black" stroke-width="1" fill="gray" opacity="0.5" x="767.16" y="-37.23" width="35.61" height="10.00"/>
<text font-family="sans-serif" x="771.97" y="-27.23">
389
</text>
</g>
<rect x="0" y="0" width="879.192" height="351.677" stroke="red" fill="none" stroke-width="2" vector-effect="non-scaling-stroke"/>
</svg>
